<svg xmlns="http://www.w3.org/2000/svg" viewBox="0 0 500 500"><g id="freepik--Building--inject-13"><g id="freepik--College--inject-13"><polygon points="98.39 76.62 250 21.68 401.61 76.62 416.28 76.62 250 16.37 83.72 76.62 98.39 76.62" style="fill:#e0e0e0"></polygon><polygon points="386.93 76.62 113.07 76.62 250 27 386.93 76.62" style="fill:#e0e0e0"></polygon><path d="M246.4,41.36v3.38l-3,.57V59.9A5.33,5.33,0,0,0,244.9,64,5.8,5.8,0,0,0,249,65.41a5.87,5.87,0,0,0,4.12-1.36,5.33,5.33,0,0,0,1.5-4.15V45.31l-3-.57V41.36H263.2v3.38l-3,.57V59.9a8.89,8.89,0,0,1-3.1,7.26,14.19,14.19,0,0,1-16.23,0,8.9,8.9,0,0,1-3.08-7.26V45.31l-3-.57V41.36H246.4Z" style="fill:#fff"></path><polygon points="393.02 82.3 393.02 89.36 381.76 89.36 381.76 82.3 374.7 82.3 374.7 89.36 363.44 89.36 363.44 82.3 356.39 82.3 356.39 89.36 345.12 89.36 345.12 82.3 338.07 82.3 338.07 89.36 326.8 89.36 326.8 82.3 319.75 82.3 319.75 89.36 308.48 89.36 308.48 82.3 301.43 82.3 301.43 89.36 290.17 89.36 290.17 82.3 283.11 82.3 283.11 89.36 271.85 89.36 271.85 82.3 264.79 82.3 264.79 89.36 253.53 89.36 253.53 82.3 246.48 82.3 246.48 89.36 235.21 89.36 235.21 82.3 228.16 82.3 228.16 89.36 216.89 89.36 216.89 82.3 209.84 82.3 209.84 89.36 198.57 89.36 198.57 82.3 191.52 82.3 191.52 89.36 180.26 89.36 180.26 82.3 173.2 82.3 173.2 89.36 161.94 89.36 161.94 82.3 154.88 82.3 154.88 89.36 143.62 89.36 143.62 82.3 136.57 82.3 136.57 89.36 125.3 89.36 125.3 82.3 118.25 82.3 118.25 89.36 106.98 89.36 106.98 82.3 99.93 82.3 99.93 89.36 99.93 103.59 400.08 103.59 400.08 89.36 400.08 89.36 400.08 82.3 393.02 82.3" style="fill:#e0e0e0"></polygon><rect x="106.59" y="107.02" width="37.22" height="6.28" style="fill:#e0e0e0"></rect><rect x="106.59" y="234.01" width="37.22" height="6.28" style="fill:#e0e0e0"></rect><rect x="111.11" y="115.91" width="28.18" height="115.67" style="fill:#e0e0e0"></rect><rect x="188.13" y="107.02" width="37.22" height="6.28" style="fill:#e0e0e0"></rect><rect x="188.13" y="234.01" width="37.22" height="6.28" style="fill:#e0e0e0"></rect><rect x="192.65" y="115.91" width="28.18" height="115.67" style="fill:#e0e0e0"></rect><rect x="356.19" y="107.02" width="37.22" height="6.28" transform="translate(749.6 220.32) rotate(180)" style="fill:#e0e0e0"></rect><rect x="356.19" y="234.01" width="37.22" height="6.28" transform="translate(749.6 474.31) rotate(180)" style="fill:#e0e0e0"></rect><rect x="360.71" y="115.91" width="28.18" height="115.67" transform="translate(749.6 347.49) rotate(180)" style="fill:#e0e0e0"></rect><rect x="274.65" y="107.02" width="37.22" height="6.28" transform="translate(586.53 220.32) rotate(180)" style="fill:#e0e0e0"></rect><rect x="274.65" y="234.01" width="37.22" height="6.28" transform="translate(586.53 474.31) rotate(180)" style="fill:#e0e0e0"></rect><rect x="279.17" y="115.91" width="28.18" height="115.67" transform="translate(586.53 347.49) rotate(180)" style="fill:#e0e0e0"></rect></g></g><g id="freepik--Trees--inject-13"><g id="freepik--Tree--inject-13"><path d="M442.46,160.4c.63,4.85-5.29,8.89-10.42,8,.31,2.92-3.8,4.61-5.45,3.11,1.65,2.16,4.35,9,0,12.68s-9.94,1.59-9.94,1.59-2,5.07-9.77,3.71-9.31-9.24-8.4-12c-5.06,2.93-15.36.69-20-6.13s-4.23-15.27-.3-19.13c-2.69-2.54-1.82-6.57-.23-8.46a4.92,4.92,0,0,1,3.86-1.72s-2.17-2.51.38-4.21c-3.63-2.12-5.29-9.69.53-15.36S397.29,119,397.29,119a12.36,12.36,0,0,1,2.07-10.59c3.31-4.29,8.81-3.86,8.81-3.86s-.24-4,3.7-4.23c-2.28-4.14-.11-9.38,2.89-11.67,5.57-4.26,19.79-5.4,19.7,5.23,5.78-4.44,14.45,1.56,13.06,7.49,4.77-4.15,12.47,1.46,10.67,7.19,6.9-2,14.1,6.24,10.25,13.85,2.68-1.55,8.76-.44,8.6,4.69a6.68,6.68,0,0,1,8.32,4.63c1,3.63-.56,6.42-3.28,8.23,2.59-.37,4.18,4,2.45,5.23,5.07,0,8.51,10.61,2.32,14.12,3.55,2.5,5.34,17.67-5.56,23.8s-26.55,2.42-27.36-7.53c-4.61-1.13-6.56-6.1-3.46-8.83C447.45,168,442.75,164.17,442.46,160.4Z" style="fill:#ebebeb"></path><path d="M481.29,183.1c10.9-6.13,9.11-21.3,5.56-23.8,6.19-3.51,2.75-14.12-2.32-14.12,1.73-1.27.14-5.6-2.45-5.23,2.72-1.81,4.26-4.6,3.28-8.23a6.57,6.57,0,0,0-3.21-4.06c2.22,3.56,1.31,9.77-4.63,11.05a7.85,7.85,0,0,1-7.85-2.57s-1.25,2.17-6.82,1.48A8.21,8.21,0,0,1,456,127c2.63-4.42-1.47-9.83-6.76-9,.25,11.14-9.39,14.51-18.48,10.16,4.43,11.15-5.24,16.56-10.16,11.64-1.64,4.1-7.05,3.6-9.51,1.15-2.46,2.62-10.16,0-10.16-6.23-4.59,5.73-12.79,4.09-13.44-2-3.5,4.58-7.87,2-8.32.21a7.17,7.17,0,0,0,3.08,4.81c-2.55,1.7-.38,4.21-.38,4.21a4.92,4.92,0,0,0-3.86,1.72c-1.59,1.89-2.46,5.92.23,8.46-3.93,3.86-4.31,12.32.3,19.13s14.92,9.06,20,6.13c-.91,2.8.68,10.67,8.4,12s9.77-3.71,9.77-3.71,5.6,2.12,9.94-1.59,1.65-10.52,0-12.68c1.65,1.5,5.76-.19,5.45-3.11,5.13.93,11-3.11,10.42-8,.29,3.77,5,7.55,8,6.34-3.1,2.73-1.15,7.7,3.46,8.83C454.74,185.52,470.4,189.23,481.29,183.1Z" style="opacity:0.07"></path><path d="M420.68,151.63s-9.79,2.9-12.51-4.11c-5,2.88-14.32,2.17-17.46-4.11-5.31,0-8.5-5.65-8.5-5.65-2.55,1.7-.38,4.21-.38,4.21a4.92,4.92,0,0,0-3.86,1.72c-1.59,1.89-2.46,5.92.23,8.46a8.88,8.88,0,0,0-1.12,1.38c-1.63,4.27,4,7.51,7.47,5.47-1.33,4.35,3.63,17.4,17.4,12,8.22,5.19,16.55-1.09,15.47-12.57C421.51,158.39,423.46,153.92,420.68,151.63Z" style="fill:#ebebeb"></path><path d="M472.76,163.23a12.66,12.66,0,0,0,3-10.28s-4.15,6-12.81,2.33-4-12.23-4-12.23-6.64.54-5.44-5.29c-2.14,1.07-5.43-.15-5.43-4.38-1,7.32-7.12,10.86-14.86,9.18,5.19,1.94,4.83,6,1.2,8.84-4.09,4.1-3.6,14.38,6.24,14a6.21,6.21,0,0,0,1.77-5c.29,3.77,5,7.55,8,6.34h0s2.83,2.53,6.22-.74C459.16,168.48,468.53,168.26,472.76,163.23Z" style="fill:#ebebeb"></path><path d="M461.68,181.92s7.74-11.32,7.31-12.2-7.31,10.37-11.58,13.42-12.8,8.23-14.94,8.23-2.29-2.59-1.52-7.62.93-6.41,4.43-11,13.52-17,12.94-17.53S445,170.91,441.86,172.92s-5.8-11.28-6.86-11.28,3,9.49,3.28,13.91-.23,9.72-2.21,11.09-7.39-2.89-10.9-6.71-3.58-20.27-4.95-20.27.88,15.11.88,16.57c0,3.18-13.4-5.52-15.82-5.14s12.33,5.66,18.14,11.28c5.05,4.91,5.92,6.45,7.64,10.08,1.83,3.85,2.36,8.82,2.36,23s-3.82,53.88-3.82,62.66a3.93,3.93,0,0,0,2.31,3.22,12.33,12.33,0,0,0,11.16,0,3.93,3.93,0,0,0,2.31-3.22h0c0-8.78-3.82-48.48-3.82-62.66s.57-19.47,4.78-22.46,11.4-8.29,14.57-9.24,12.35.61,12.35,0S461.68,181.92,461.68,181.92Z" style="fill:#f0f0f0"></path></g><g id="freepik--tree--inject-13"><path d="M57.54,160.4c-.63,4.85,5.29,8.89,10.42,8-.31,2.92,3.8,4.61,5.45,3.11-1.65,2.16-4.35,9,0,12.68s9.94,1.59,9.94,1.59,2.05,5.07,9.77,3.71,9.31-9.24,8.4-12c5.06,2.93,15.36.69,20-6.13s4.23-15.27.3-19.13c2.69-2.54,1.82-6.57.23-8.46a4.92,4.92,0,0,0-3.86-1.72s2.17-2.51-.38-4.21c3.63-2.12,5.3-9.69-.53-15.36S102.71,119,102.71,119a12.36,12.36,0,0,0-2.07-10.59c-3.31-4.29-8.81-3.86-8.81-3.86s.24-4-3.7-4.23c2.28-4.14.11-9.38-2.89-11.67-5.57-4.26-19.79-5.4-19.7,5.23-5.78-4.44-14.45,1.56-13.06,7.49-4.77-4.15-12.47,1.46-10.67,7.19-6.9-2-14.1,6.24-10.25,13.85-2.68-1.55-8.76-.44-8.6,4.69a6.68,6.68,0,0,0-8.32,4.63c-1,3.63.56,6.42,3.28,8.23-2.59-.37-4.18,4-2.45,5.23-5.07,0-8.51,10.61-2.32,14.12C9.6,161.8,7.81,177,18.71,183.1s26.55,2.42,27.36-7.53c4.61-1.13,6.56-6.1,3.46-8.83C52.55,168,57.25,164.17,57.54,160.4Z" style="fill:#ebebeb"></path><path d="M18.71,183.1C7.81,177,9.6,161.8,13.15,159.3c-6.19-3.51-2.75-14.12,2.32-14.12-1.73-1.27-.14-5.6,2.45-5.23-2.72-1.81-4.26-4.6-3.28-8.23a6.57,6.57,0,0,1,3.21-4.06c-2.22,3.56-1.31,9.77,4.63,11.05a7.85,7.85,0,0,0,7.85-2.57s1.25,2.17,6.82,1.48A8.21,8.21,0,0,0,44,127c-2.63-4.42,1.47-9.83,6.76-9-.25,11.14,9.39,14.51,18.48,10.16-4.43,11.15,5.24,16.56,10.16,11.64,1.64,4.1,7,3.6,9.51,1.15,2.46,2.62,10.16,0,10.16-6.23,4.59,5.73,12.79,4.09,13.44-2,3.5,4.58,7.87,2,8.32.21a7.17,7.17,0,0,1-3.08,4.81c2.55,1.7.38,4.21.38,4.21a4.92,4.92,0,0,1,3.86,1.72c1.59,1.89,2.46,5.92-.23,8.46,3.93,3.86,4.31,12.32-.3,19.13s-14.92,9.06-20,6.13c.91,2.8-.68,10.67-8.4,12s-9.77-3.71-9.77-3.71-5.6,2.12-9.94-1.59-1.65-10.52,0-12.68c-1.65,1.5-5.76-.19-5.45-3.11-5.13.93-11-3.11-10.42-8-.29,3.77-5,7.55-8,6.34,3.1,2.73,1.15,7.7-3.46,8.83C45.26,185.52,29.6,189.23,18.71,183.1Z" style="opacity:0.07"></path><path d="M79.32,151.63s9.79,2.9,12.51-4.11c5,2.88,14.32,2.17,17.46-4.11,5.31,0,8.5-5.65,8.5-5.65,2.55,1.7.38,4.21.38,4.21a4.92,4.92,0,0,1,3.86,1.72c1.59,1.89,2.46,5.92-.23,8.46a8.88,8.88,0,0,1,1.12,1.38c1.63,4.27-4,7.51-7.47,5.47,1.33,4.35-3.63,17.4-17.4,12-8.22,5.19-16.55-1.09-15.47-12.57C78.49,158.39,76.54,153.92,79.32,151.63Z" style="fill:#ebebeb"></path><path d="M27.24,163.23a12.66,12.66,0,0,1-3-10.28s4.15,6,12.81,2.33,4-12.23,4-12.23,6.64.54,5.44-5.29c2.14,1.07,5.43-.15,5.43-4.38,1,7.32,7.12,10.86,14.86,9.18-5.19,1.94-4.83,6-1.2,8.84,4.09,4.1,3.6,14.38-6.24,14a6.21,6.21,0,0,1-1.77-5c-.29,3.77-5,7.55-8,6.34h0s-2.83,2.53-6.22-.74C40.84,168.48,31.47,168.26,27.24,163.23Z" style="fill:#ebebeb"></path><path d="M38.32,181.92S30.58,170.6,31,169.72s7.31,10.37,11.58,13.42,12.8,8.23,14.94,8.23,2.29-2.59,1.52-7.62-.93-6.41-4.43-11-13.52-17-12.94-17.53S55,170.91,58.14,172.92s5.8-11.28,6.86-11.28-3,9.49-3.28,13.91.23,9.72,2.21,11.09,7.39-2.89,10.9-6.71,3.58-20.27,5-20.27-.88,15.11-.88,16.57c0,3.18,13.4-5.52,15.82-5.14s-12.33,5.66-18.14,11.28c-5,4.91-5.92,6.45-7.64,10.08-1.83,3.85-2.36,8.82-2.36,23s3.82,53.88,3.82,62.66a3.93,3.93,0,0,1-2.31,3.22,12.33,12.33,0,0,1-11.16,0,3.93,3.93,0,0,1-2.31-3.22h0c0-8.78,3.82-48.48,3.82-62.66S57.87,196,53.66,193s-11.4-8.29-14.57-9.24-12.35.61-12.35,0S38.32,181.92,38.32,181.92Z" style="fill:#f0f0f0"></path></g></g><g id="freepik--Floor--inject-13"><path id="freepik--floor--inject-13" d="M81.84,253.29C-11,306.91-11,393.84,81.85,447.45s243.44,53.62,336.31,0,92.86-140.54,0-194.16S174.71,199.67,81.84,253.29Z" style="fill:#fafafa"></path></g><g id="freepik--Shadows--inject-13"><ellipse id="freepik--Shadow--inject-13" cx="242.01" cy="384.18" rx="65.45" ry="37.79" style="fill:#e0e0e0"></ellipse><ellipse id="freepik--shadow--inject-13" cx="100.1" cy="421.61" rx="65.45" ry="37.79" style="fill:#e0e0e0"></ellipse><ellipse id="freepik--shadow--inject-13" cx="394.74" cy="420.3" rx="65.45" ry="37.79" style="fill:#e0e0e0"></ellipse></g><g id="freepik--speech-bubble-2--inject-13"><g id="freepik--speech-bubble--inject-13"><g id="freepik--speech-bubble--inject-13"><path d="M441.36,131.46l-1-3.12c-.54-2.51,9.72,3.41,10.25,5.92l-3.3,8.9a1.4,1.4,0,0,1-.55.64c-.73.45-3.4,2-3.63,2.1a1.44,1.44,0,0,1-2.12-.79l-4.27-14.67C436.47,129.2,438.83,130,441.36,131.46Z" style="fill:#3963C0"></path><path d="M441.36,131.46l-1-3.12c-.54-2.51,9.72,3.41,10.25,5.92l-3.3,8.9a1.4,1.4,0,0,1-.55.64c-.73.45-3.4,2-3.63,2.1a1.44,1.44,0,0,1-2.12-.79l-4.27-14.67C436.47,129.2,438.83,130,441.36,131.46Z" style="fill:#fff;opacity:0.2"></path><path d="M427.42,71.68l39,22.49a2.91,2.91,0,0,1,1.32,2.28v46.19a2.86,2.86,0,0,1-1.33,2.26L464,146.27a3,3,0,0,1-2.64,0l-39-22.48a2.92,2.92,0,0,1-1.31-2.28V75.3A2.89,2.89,0,0,1,422.37,73l2.41-1.36A3,3,0,0,1,427.42,71.68Z" style="fill:#3963C0"></path><path d="M427.42,71.68l39,22.49a2.91,2.91,0,0,1,1.32,2.28v46.19a2.86,2.86,0,0,1-1.33,2.26L464,146.27a3,3,0,0,1-2.64,0l-39-22.48a2.92,2.92,0,0,1-1.31-2.28V75.3A2.89,2.89,0,0,1,422.37,73l2.41-1.36A3,3,0,0,1,427.42,71.68Z" style="fill:#fff;opacity:0.2"></path><path d="M422.36,74.54l39,22.49a2.91,2.91,0,0,1,1.32,2.28v46.18c0,.84-.59,1.18-1.32.76l-14.92-8.6-2.74,7.6a1.43,1.43,0,0,1-2.67-.14l-3.64-12.68-15-8.66a2.92,2.92,0,0,1-1.31-2.28V75.3C421.05,74.46,421.64,74.12,422.36,74.54Z" style="fill:#3963C0"></path><path d="M422.36,74.54l39,22.49a2.91,2.91,0,0,1,1.32,2.28v46.18c0,.84-.59,1.18-1.32.76l-14.92-8.6-2.74,7.6a1.43,1.43,0,0,1-2.67-.14l-3.64-12.68-15-8.66a2.92,2.92,0,0,1-1.31-2.28V75.3C421.05,74.46,421.64,74.12,422.36,74.54Z" style="fill:#fff;opacity:0.4"></path><path d="M428.69,105.44V97.59l14,16.81,17.86-.83L442.69,93.8,424.82,93l3.44,4.13v8.11c-.23,0-.4.18-.4.54v8a1.47,1.47,0,0,0,.62,1.18c.34.2.62,0,.62-.46v-8A1.55,1.55,0,0,0,428.69,105.44Zm3.92-.37v10.58c0,6.2,20.16,17.84,20.16,11.65V116.71l-10.08.47Z" style="fill:#fff"></path><path d="M421.06,75.07c.11-.67.65-.91,1.31-.53l39,22.49a2.75,2.75,0,0,1,.93,1l5-2.9a2.65,2.65,0,0,0-.91-.94l-39-22.49a3,3,0,0,0-2.64,0L422.37,73A2.93,2.93,0,0,0,421.06,75.07Z" style="fill:#fff;opacity:0.7000000000000001"></path></g></g></g><g id="freepik--speech-bubble-1--inject-13"><g id="freepik--speech-bubble--inject-13"><g id="freepik--speech-bubble--inject-13"><path d="M59.26,131.46l1-3.12c.53-2.51-9.72,3.41-10.26,5.92l3.31,8.9a1.34,1.34,0,0,0,.55.64c.73.45,3.4,2,3.63,2.1a1.43,1.43,0,0,0,2.11-.79l4.28-14.67C64.15,129.2,61.79,130,59.26,131.46Z" style="fill:#3963C0"></path><path d="M59.26,131.46l1-3.12c.53-2.51-9.72,3.41-10.26,5.92l3.31,8.9a1.34,1.34,0,0,0,.55.64c.73.45,3.4,2,3.63,2.1a1.43,1.43,0,0,0,2.11-.79l4.28-14.67C64.15,129.2,61.79,130,59.26,131.46Z" style="fill:#fff;opacity:0.2"></path><path d="M73.19,71.68l-39,22.49a2.91,2.91,0,0,0-1.32,2.28v46.19a2.85,2.85,0,0,0,1.32,2.26l2.42,1.37a3,3,0,0,0,2.64,0l39-22.48a2.92,2.92,0,0,0,1.31-2.28V75.3A2.89,2.89,0,0,0,78.25,73l-2.41-1.36A3,3,0,0,0,73.19,71.68Z" style="fill:#3963C0"></path><path d="M73.19,71.68l-39,22.49a2.91,2.91,0,0,0-1.32,2.28v46.19a2.85,2.85,0,0,0,1.32,2.26l2.42,1.37a3,3,0,0,0,2.64,0l39-22.48a2.92,2.92,0,0,0,1.31-2.28V75.3A2.89,2.89,0,0,0,78.25,73l-2.41-1.36A3,3,0,0,0,73.19,71.68Z" style="fill:#fff;opacity:0.2"></path><path d="M78.26,74.54,39.28,97A2.91,2.91,0,0,0,38,99.31v46.18c0,.84.59,1.18,1.32.76l14.91-8.6,2.74,7.6a1.43,1.43,0,0,0,2.67-.14l3.64-12.68,15-8.66a2.92,2.92,0,0,0,1.31-2.28V75.3C79.57,74.46,79,74.12,78.26,74.54Z" style="fill:#3963C0"></path><path d="M78.26,74.54,39.28,97A2.91,2.91,0,0,0,38,99.31v46.18c0,.84.59,1.18,1.32.76l14.91-8.6,2.74,7.6a1.43,1.43,0,0,0,2.67-.14l3.64-12.68,15-8.66a2.92,2.92,0,0,0,1.31-2.28V75.3C79.57,74.46,79,74.12,78.26,74.54Z" style="fill:#fff;opacity:0.4"></path><path d="M56.71,97.73v3.56l-2.37,2v15.35c0,1.94.39,3.17,1.18,3.68s1.85.37,3.22-.41A8.57,8.57,0,0,0,62,118.56a10.17,10.17,0,0,0,1.19-5V98.16l-2.35.75V95.35L70,90.08v3.55l-2.37,2V111A17.24,17.24,0,0,1,65.15,120a17.76,17.76,0,0,1-6.41,6.39c-2.64,1.52-4.77,1.86-6.39,1s-2.43-2.93-2.43-6.23V105.81l-2.35.75V103l2.35-1.36,4.42-2.55Z" style="fill:#fff"></path><path d="M79.55,75.07c-.1-.67-.64-.91-1.3-.53L39.28,97a2.75,2.75,0,0,0-.93,1l-5-2.9a2.65,2.65,0,0,1,.91-.94l39-22.49a3,3,0,0,1,2.64,0L78.25,73A2.91,2.91,0,0,1,79.55,75.07Z" style="fill:#fff;opacity:0.7000000000000001"></path></g></g></g><g id="freepik--character-3--inject-13"><g id="freepik--Chartacter--inject-13"><path d="M396.19,247.39l-5.81-3.28s-31,7.07-34.26,10.6c-1.95,2.1-6.31,23.21-4.74,23.14,2.4-.1,35.66-10.64,35.66-10.64Z" style="fill:#3963C0"></path><path d="M396.19,247.39l-5.81-3.28s-31,7.07-34.26,10.6c-1.95,2.1-6.31,23.21-4.74,23.14,2.4-.1,35.66-10.64,35.66-10.64Z" style="opacity:0.30000000000000004"></path><path d="M360.36,302.28c5.45.65,34.36-14.08,36.74-16s-.91-38.88-.91-38.88L363.5,258.26Z" style="fill:#263238"></path><path d="M356.71,255.46c-2.82,8.9-8.07,39.4-7.11,42.09s9.15,5.05,10.76,4.73,3.14-44,3.14-44Z" style="fill:#37474f"></path><g id="freepik--Bottom--inject-13"><path d="M385.94,388.67l1.58-14.74L370.64,375s.25,8,.49,12.53c.14,2.68-3.47,7.65-3.47,7.65s7.93,4.26,12.18,2.77,6.5-6.78,6.44-7.93S385.94,388.67,385.94,388.67Z" style="fill:#ffa8a7"></path><path d="M345.28,411.71c-.27,0-.71,2.74.71,3.93,1.65,1.37,6.52,3.67,13,3s10-2.49,12.65-4.48,6.31-4.78,9.25-5.34c2.73-.51,5.7-1.62,6.58-2.39s.82-4.27.82-4.27Z" style="fill:#263238"></path><path d="M385.94,388.65a1,1,0,0,1,1,.83c.18,1,.35,3.78.75,5.37a26.35,26.35,0,0,1,.5,8.51c-.38,1.79-4.84,3-7.69,3.92a36.32,36.32,0,0,0-9.28,5.27c-3.08,2.3-9.52,4.63-13.74,4.53-5-.12-10.6-1.73-11.85-3.92-1.55-2.71-2.66-5.84,4.8-8.93,1.41-.58,6.38-3.22,8.07-4.18,4.59-2.6,7.82-5,10-9.7a2.66,2.66,0,0,1,1.08-1.42,2.54,2.54,0,0,1,1.45-.1c1.23.18,6.14.9,7.26,1.42s2.38,1,2.34,2.19a3.65,3.65,0,0,1-.3,1.21c-.09.24-.16.56.06.71s.5,0,.7-.17a18.47,18.47,0,0,0,2-2.21,6.85,6.85,0,0,1,1.19-1.09,14.35,14.35,0,0,0,1.28-.75C386,389.73,385.91,389.2,385.94,388.65Z" style="fill:#455a64"></path><path d="M371.19,412.55c1.31-1,2.7-1.91,4.09-2.75h0s-8.79,4.81-12.27,2.5c-2.25-1.49-1.14-3.23-1.08-3.79s-7.87-4.67-10.07-4.95h0c-.62.3-1.14.55-1.46.68-7.46,3.09-6.35,6.22-4.8,8.93,1.25,2.19,5.3,3.95,11.76,4.06C361.58,417.29,368.11,414.85,371.19,412.55Z" style="fill:#37474f"></path><path d="M362.57,406.87c-4.64,1.64-2.68,2.48-1.4,2.68s9.11-3.91,13.9-7.33c5-3.57,8.16-7.51,10-8.81.69-.49,1.44-1.09,2.1-1.66-.1-.95-.19-1.81-.27-2.27a1,1,0,0,0-1-.83c0,.55.07,1.08-.39,1.49a14.35,14.35,0,0,1-1.28.75,6.85,6.85,0,0,0-1.19,1.09,18.47,18.47,0,0,1-2,2.21C377,398.9,367.2,405.22,362.57,406.87Z" style="fill:#37474f"></path><path d="M361.51,408.92a.5.5,0,0,0,.29-.09.41.41,0,0,0,.08-.6c-1.28-1.51-7.38-5.15-10.78-4.86a.43.43,0,0,0-.41.46.45.45,0,0,0,.5.39c3.17-.27,9,3.34,10,4.54A.48.48,0,0,0,361.51,408.92Z" style="fill:#263238"></path><path d="M365.57,406.67a.4.4,0,0,0,.29-.09.41.41,0,0,0,.07-.6c-1.28-1.51-7.38-5.14-10.77-4.86a.43.43,0,0,0-.41.47.44.44,0,0,0,.49.38c3.17-.26,9,3.34,10,4.54A.42.42,0,0,0,365.57,406.67Z" style="fill:#263238"></path><path d="M369.62,404.55a.52.52,0,0,0,.29-.09.4.4,0,0,0,.07-.6c-1.27-1.51-7.37-5.15-10.77-4.86a.43.43,0,1,0,.08.85c3.18-.26,9,3.34,10,4.54A.48.48,0,0,0,369.62,404.55Z" style="fill:#263238"></path><path d="M373.38,402.11a.48.48,0,0,0,.29-.09.41.41,0,0,0,.08-.6c-1.28-1.51-7.39-5.15-10.78-4.86a.44.44,0,0,0-.41.47.45.45,0,0,0,.5.38c3.16-.26,9,3.34,10,4.54A.48.48,0,0,0,373.38,402.11Z" style="fill:#263238"></path><path d="M377.07,399.67a.45.45,0,0,0,.29-.09.4.4,0,0,0,.08-.59c-1.75-2.14-8.16-5.21-11.55-4.92a.43.43,0,0,0-.41.46.45.45,0,0,0,.5.39c3-.26,9.18,2.69,10.74,4.58A.46.46,0,0,0,377.07,399.67Z" style="fill:#263238"></path><path d="M419.32,396.71l-3.86-14,17.19-2.66.77,13.53s1.83,4.82.78,6.6-12.47,3.79-13.54,2.63S419.32,396.71,419.32,396.71Z" style="fill:#ffa8a7"></path><path d="M421.08,427.19c.56,4.32,1.51,7.12,3.42,9.44s5.25,2.68,8.54,1.47,7.44-3.79,8.16-7.69.36-6.46-.65-10.4Z" style="fill:#263238"></path><path d="M433.42,393.61c1.38-.1,1.11,5.85,2.27,11.61,1.24,6.18,3.53,8.5,4.61,13.55,1.24,5.78,1.05,8.46-1.05,12.35s-10.13,8.5-14.51,3.95c-3.57-3.71-4-8.31-4.07-14.24a132.78,132.78,0,0,0-.63-15c-.55-4.38-1.88-8.27-.71-8.92.13.63.27,1.45.41,2.07s.39,2.85,1.16,2.77a7.77,7.77,0,0,0-.09-1.67,1.89,1.89,0,0,1,.29-1.47,6.15,6.15,0,0,1,2.21-1.16c1.33-.43,3.73-1,5.1-1.26.68-.15,1.36-.27,2-.36a6.11,6.11,0,0,1,1.76,0,1.11,1.11,0,0,1,.78.5,1.64,1.64,0,0,1,.11.66,4.35,4.35,0,0,0,.25,1.19c.06.17.21.36.4.29a.38.38,0,0,0,.21-.38c0-.72-.18-1.22-.27-2,0-.38-.14-.89-.17-1.28S433.47,394,433.42,393.61Z" style="fill:#455a64"></path><path d="M439.88,417.14c.19.83,1.35,6.35-.31,7.6s-3.11-2.93-3.11-2.93-4.46-.59-10.69,2.76c.39.87-.41,4-2.2,3.62s-2.87-6.76-2.89-6.85c.09,5.69.59,10.13,4.06,13.73,4.38,4.55,12.41-.07,14.51-3.95s2.29-6.57,1.05-12.35C440.17,418.2,440,417.66,439.88,417.14Z" style="fill:#37474f"></path><path d="M436,422.26c.16,2.12,2.48,1.08,2.4-1.94s-2.39-9.92-2.7-15.1c-.5-7.11-.89-11.71-2.27-11.61,0,.07,0,.14,0,.21l.37,3c.06.43.13.81.16,1.27.3,4.34.48,12.78,1.15,16.7A61.33,61.33,0,0,1,436,422.26Z" style="fill:#37474f"></path><path d="M426.51,424.41a61.2,61.2,0,0,1-1.78-7.3c-.72-3.88-3.15-11.62-4.36-15.79a9.28,9.28,0,0,1-.63-2.36c-.13-.58-.26-1.32-.39-1.94l0-.12c-.84.48-.5,3.85,0,5.58s1,3.6,1.64,6.1c1.49,4.91,1.73,12.31,2.69,15.13S427.09,426.44,426.51,424.41Z" style="fill:#37474f"></path><path d="M425.65,424.76l.18-.07a18.84,18.84,0,0,1,10.53-2.43.55.55,0,0,0,.6-.4.42.42,0,0,0-.39-.51,19.79,19.79,0,0,0-11.26,2.6.45.45,0,0,0-.18.64A.52.52,0,0,0,425.65,424.76Z" style="fill:#263238"></path><path d="M424.21,420.29a.41.41,0,0,0,.17-.07,23.33,23.33,0,0,1,11.79-2.7.58.58,0,0,0,.59-.42.42.42,0,0,0-.42-.49,24.18,24.18,0,0,0-12.46,2.86.46.46,0,0,0-.2.63A.48.48,0,0,0,424.21,420.29Z" style="fill:#263238"></path><path d="M435.56,413.17a.56.56,0,0,0,.41-.36.41.41,0,0,0-.36-.53c-6.28-1-12.19,2.6-12.44,2.75a.46.46,0,0,0-.18.64.54.54,0,0,0,.7.1c.06,0,5.81-3.54,11.65-2.59A.55.55,0,0,0,435.56,413.17Z" style="fill:#263238"></path><path d="M434.94,409.08a.58.58,0,0,0,.41-.36.41.41,0,0,0-.34-.54,18.3,18.3,0,0,0-12.7,2.76.44.44,0,0,0-.13.64.53.53,0,0,0,.71.06,17.42,17.42,0,0,1,11.83-2.56Z" style="fill:#263238"></path><path d="M434.23,404.48a.58.58,0,0,0,.41-.35.41.41,0,0,0-.33-.54c-6.49-1.25-12.53,2.72-12.79,2.89a.44.44,0,0,0-.14.64.51.51,0,0,0,.7.07c.06,0,5.9-3.86,11.92-2.71A.59.59,0,0,0,434.23,404.48Z" style="fill:#263238"></path><path d="M427.09,246c3.24,34.27,2.36,83.32,2.36,83.32.29,2.6,2.27,10.35,4,23.16,1.52,11.4,0,35.1,0,36.53,0,0-8.1,5.66-15.63,3.24,0,0-9.32-35.25-13.44-51.16-3.89-15.06-9.08-39.27-9.08-39.27l-2.95,24.62s.7,9.95.54,16.79c-.19,8-5.78,39.64-5.78,39.64s-9,5.11-16.92-.87c0,0-4.8-46.34-5.18-55.91-.76-18.77-1.85-56.91.42-80Z" style="fill:#455a64"></path><path d="M395.27,301.83,391,277.49s-9.1-1.19-13.82-5.39c0,0,3.1,5.61,11.69,7.67l4.22,22.16-.76,24.52Z" style="fill:#263238"></path><path d="M433.88,389.34c-1.84,2.58-9.61,4.94-16.35,2.73l-1.53-5.6c5.09,1.55,13.8.49,17.88-2.91Z" style="fill:#3963C0"></path><path d="M387.18,383.2c-2.24,2.23-10.87,3.45-17.14.07l-.35-5.4c4.75,2.43,13.82,2.65,18.41,0Z" style="fill:#3963C0"></path></g><g id="freepik--Top--inject-13"><path d="M297.52,189.82a4.34,4.34,0,0,1,2.56-.47,28.12,28.12,0,0,1,4.13,1.06c2.11.51,7.51,1.53,9.61.87.43-.14,1.28-.55.55-.93a18.52,18.52,0,0,1-2.82-1.58,3.88,3.88,0,0,1-1.65-2.67,1.32,1.32,0,0,1,.23-.93c.28-.36.57-.25.91-.12a7.92,7.92,0,0,0,1.11.33l2.3.61c4.48,1.24,9.05,2.87,12.4,6.23.48.49,3.68,4.5,5.65,6.71,1.68,2.06,12.39,12.15,12.39,12.15s5.48-6.1,9.48-10.38c7.12-7.62,9.87-10.66,12.38-13.2,2.19-2.23,5.83-4.92,9.9-5.36l-3.27,28.21s-13.53,11.94-17.46,15c-8.11,6.3-10.86,8.08-15.06,5-4.53-3.25-7.55-6.67-11.95-14.83-3.59-6.67-4.48-8.24-5.74-10.26-1.07-1.73-3.74-1.65-5.17-1.71a38.74,38.74,0,0,1-7.81-1.06,19.59,19.59,0,0,1-4.79-1.89,6.11,6.11,0,0,1-2-1.45,19,19,0,0,0-.9-1.88c-.51-.64-1.31-1-1.74-1.71a7.09,7.09,0,0,1-.61-1.82,3.27,3.27,0,0,0-1.92-1.83,2.93,2.93,0,0,1-1.13-.79C296.62,190.57,297,190.12,297.52,189.82Z" style="fill:#ffa8a7"></path><path d="M344.89,211.08h0s1.49-1.64,1.49-1.64a12.92,12.92,0,0,1,3.18,12.36A16.39,16.39,0,0,0,344.89,211.08Z" style="fill:#f28f8f"></path><path d="M316.74,192.49a14.31,14.31,0,0,0,6.35,4.72,5.9,5.9,0,0,1-4-.87A5.55,5.55,0,0,1,316.74,192.49Z" style="fill:#f28f8f"></path><path d="M383.38,180.52c-8.77-.37-12.09,1.09-16.14,5s-15,16.75-15,16.75-.73-.86-4,3.33-2.87,5-2.87,5a11.21,11.21,0,0,1,7.07,4.94,31.33,31.33,0,0,1,3.77,9.64s1-.24,3.93-2.66,23-20.33,23-20.33Z" style="fill:#3963C0"></path><path d="M383.38,180.52c-8.77-.37-12.09,1.09-16.14,5s-15,16.75-15,16.75-.73-.86-4,3.33-2.87,5-2.87,5a11.21,11.21,0,0,1,7.07,4.94,31.33,31.33,0,0,1,3.77,9.64s1-.24,3.93-2.66,23-20.33,23-20.33Z" style="opacity:0.30000000000000004"></path><path d="M362.43,213.61a14.74,14.74,0,0,1,.56,5c0,.22.2.11.25,0,1.17-3-.12-6.45-1.86-9a20.15,20.15,0,0,0-3.39-3.75,23.82,23.82,0,0,0-2.06-1.57,9.18,9.18,0,0,0-2.25-1.29c-.19,0-.45.23-.29.39a17,17,0,0,0,2,1.4c.59.44,1.17.91,1.72,1.4a23.3,23.3,0,0,1,3.11,3.33A13.65,13.65,0,0,1,362.43,213.61Zm-11.23-6.5a10.35,10.35,0,0,0,1.76,1.13q.87.57,1.71,1.2a18.39,18.39,0,0,1,3,2.83A13.43,13.43,0,0,1,360,215.9a10.3,10.3,0,0,1,.59,2.26,21.13,21.13,0,0,0,.28,2.26c0,.11.14,0,.15,0a10,10,0,0,0,.09-2.38,7.84,7.84,0,0,0-.46-2.24,13,13,0,0,0-2.17-3.65,18.24,18.24,0,0,0-3.28-3.11,18.44,18.44,0,0,0-1.82-1.2,7.06,7.06,0,0,0-2-1C351.22,206.82,351.11,207,351.2,207.11Z" style="opacity:0.1"></path><path id="freepik--Chest--inject-13" d="M407.31,178.28c3.45.72,13.94,4.93,17.92,7.13,0,0,4.6,9.62,2.27,31.89-.37,3.57-1.32,13.18-1.76,20.6a116.08,116.08,0,0,0,.12,18.14s-9.37,8.19-33.78,6.35c-19.17-1.44-24.93-9.32-24.93-9.32s.09-25.85.59-40c.65-18.56,6.27-29.27,10.41-32.51l12.58-2.1Z" style="fill:#f0f0f0"></path><path d="M409.56,178.38l-.05,1.23s-4.6,11-5,32.82,0,57.21,0,57.21a42,42,0,0,0,25.27-2s-1-16.35-.76-25-.79-21.45,0-34a63.14,63.14,0,0,0-3.4-23.53Z" style="fill:#3963C0"></path><path d="M390.48,177.67l-12.33,2.9s-7.36,4.6-10,21.68-3.91,58.47-3.91,58.47a29.93,29.93,0,0,0,8.2,3.08s.77-20.38,1.85-39.16c1.3-22.65,2.85-36.91,16-46.14Z" style="fill:#3963C0"></path><path d="M412.59,215.73c-2.17,2.13-4.31,4.31-6.42,6.51,2.39-2,4.75-4.1,7.06-6.21l.19-.16c-.92-1.87-1.78-3.76-2.72-5.61l-2.42-4.83c2-.73,4-1.5,6-2.27l.31-.12v-.32c.23-6.75.39-13.78.31-20.51-.6,6.59-1,13.49-1.28,20.14-2.25.82-4.5,1.66-6.73,2.54l.26.49C408.72,208.43,410.93,212.7,412.59,215.73Zm-43.94-6.64.07.16c1.25,2.87,2.53,5.72,3.88,8.54-1-2.9-2.05-5.77-3.14-8.63q2.58-3.71,5.07-7.46l.18-.28-.18-.28-2.38-3.62a43.15,43.15,0,0,1,1.82-4.47,81.54,81.54,0,0,1,8.15-13c-4.72,5.1-8.88,11-11.11,17.6l.14.21,2.35,3.55q-2.42,3.72-4.75,7.49Z" style="opacity:0.30000000000000004"></path><path d="M395.63,221.5c-3.5-2.17-5.24-3-6.81-3.27s-7.13-2.06-9.24-2.39c-1.33-.21-1.68,1.91.11,3.19,1.38,1,4.83,2.14,6.36,2.81s4.71,3.91,4.71,3.91Z" style="fill:#f28f8f"></path><path d="M435,192c-2.1-4.06-5.15-4.62-8.94-5.86-10.93,5.68-2.84,28.9-2.84,28.9l4.87,18.7S412,233.27,409.6,232s-8.86-7.11-11-8.85c-2.95-2.37-4.27-1.91-5.63-1.58-4.47,1.08-5.43,1.55-6.34,2.24a2.06,2.06,0,0,0-.72,1.84c-1.19.26-3,.38-3.05,2.37a5.81,5.81,0,0,0,.06,1.59,1.28,1.28,0,0,0-.74.52c-.9,1.24,1.17,5.11,2.34,6,.83.62,1.93.61,3.34.29,1.21-.27.53-1.46.53-1.46l1.72-.05c3.91,2.29,4.55,7.46,9.52,8.17a34,34,0,0,1,6,.64c10.79,2.6,27.69,8.64,37.1,8.62,9.18,0,6.84-10.39,5.63-17.06C447.48,230.39,440.17,202,435,192Z" style="fill:#ffa8a7"></path><path d="M385.88,225.69l5.28-1.56-5.24.81A2.13,2.13,0,0,0,385.88,225.69Z" style="fill:#f28f8f"></path><path d="M382.89,229.65l6.12-1.34-6.19.62A3.65,3.65,0,0,0,382.89,229.65Z" style="fill:#f28f8f"></path><path d="M384.9,232.8a6.07,6.07,0,0,0,.85.16,20.56,20.56,0,0,0,2.17,0s.08.44.87,1.12a12.16,12.16,0,0,0,1.29.9l-1.72.05a2.67,2.67,0,0,0-1.84-.86,1.24,1.24,0,0,0-.82.23,2.09,2.09,0,0,0-.57.73,1.74,1.74,0,0,1,.47-.86,1.29,1.29,0,0,1,.62-.3l-.42-.73a4,4,0,0,1-1-.25,1.91,1.91,0,0,1-.89-.64A2.46,2.46,0,0,0,384.9,232.8Z" style="fill:#f28f8f"></path><path d="M425.63,185.13c7.45,2.58,10.11,4.68,12.82,11.17,3.37,8.09,7.24,25.27,8.39,28.61,2.87,4.09,1.55,10.24,1.55,10.24s-9.8-7.41-20.33-1.41c0,0-4.37-15.77-5.61-18.63S414.37,191.42,425.63,185.13Z" style="fill:#3963C0"></path><path d="M425.63,185.13c7.45,2.58,10.11,4.68,12.82,11.17,3.37,8.09,7.24,25.27,8.39,28.61,2.87,4.09,1.55,10.24,1.55,10.24s-9.8-7.41-20.33-1.41c0,0-4.37-15.77-5.61-18.63S414.37,191.42,425.63,185.13Z" style="opacity:0.30000000000000004"></path><path d="M428.49,228.76a18.87,18.87,0,0,1,3.37-2.15,17.41,17.41,0,0,1,4-1.3,20.51,20.51,0,0,1,4.95-.29,30.89,30.89,0,0,1,4.78.76s0-.08,0-.08a18.41,18.41,0,0,0-9.47-.93,14,14,0,0,0-7.7,3.79C428.35,228.62,428.39,228.84,428.49,228.76Zm.56,2.48s0,.2.06.16c.87-.52,1.68-1.12,2.58-1.58a15.37,15.37,0,0,1,2.93-1.15,19,19,0,0,1,6.28-.56s0-.05,0-.06a12.37,12.37,0,0,0-6.22.14A11.92,11.92,0,0,0,429.05,231.24Z" style="opacity:0.1"></path><g id="freepik--Head--inject-13"><path d="M412.23,138.93s3.54,0,5.32,2.65,3,7.47,1.12,13c-2.05,6.14-6.32,12.15-7.23,13.88a4.8,4.8,0,0,1-2.78,2.23l.19-7.46.28-5.19s-4.19-3.8-4.55-7.53A12,12,0,0,1,406,143Z" style="fill:#37474f"></path><path d="M386.75,147.64a19.19,19.19,0,0,1,6.77-1.45l6.25-.4,6.69-.44s7.13-1.19,7.13-6.24a7.67,7.67,0,0,0-1.48-4.51,15.55,15.55,0,0,0-3.7-3.54,19.35,19.35,0,0,0-9.76-3.31,31.72,31.72,0,0,0-8.18.72,15.9,15.9,0,0,1-5.52.47c-1.31-.22-2.72-1-2.94-2.31a5.72,5.72,0,0,0-.6,6.25,4.1,4.1,0,0,0-4,3c-.53,1.93.37,3.49,1.52,5-.14-.18-.86,1.24-.92,1.36a4.51,4.51,0,0,0-.35,2.71,4.38,4.38,0,0,0,2.61,2.81A7.2,7.2,0,0,0,386.75,147.64Z" style="fill:#37474f"></path><path d="M415.66,165.46c-3.86,1.87-5.62-1.18-5.62-1.18l-.58,15.37c-7.41,9.92-27.2,6.33-19.09-1.1l0-3.5a23.17,23.17,0,0,1-3.34-.33c-3.42-.54-6.55-3.58-7.57-7.28-1.51-5.48-1.11-13.93.95-23.25.4-1.8,1.18-3.77,2.83-4.58,4.11-2,7.9.89,13.62,3.12,2.36.92,8.11,1.33,9.62.62-2,2.2-2,9.16,1,12a6.73,6.73,0,0,0,1.47,1.92c1.25,1.09,2.28-1.72,3.33-2.82A4.31,4.31,0,0,1,419,156,7,7,0,0,1,415.66,165.46Z" style="fill:#ffa8a7"></path><path d="M390.39,175.05c4.49,0,8.47-.58,11.12-1.7s5-4.7,5.76-8.25c0,2.86-1.26,7.93-5.27,10s-8.68,2.22-11.62,2.29Z" style="fill:#f28f8f"></path><path d="M396.85,148.45l3.8,1.59a2.15,2.15,0,0,0-1.14-2.76A2,2,0,0,0,396.85,148.45Z" style="fill:#37474f"></path><path d="M382.67,148.35l3.85-1.53a2,2,0,0,0-2.62-1.2A2.16,2.16,0,0,0,382.67,148.35Z" style="fill:#37474f"></path><path d="M399.17,153.21a1.68,1.68,0,1,1-1.62-1.73A1.68,1.68,0,0,1,399.17,153.21Z" style="fill:#263238"></path><path d="M385.66,152.53a1.68,1.68,0,1,1-1.61-1.74A1.53,1.53,0,0,1,385.66,152.53Z" style="fill:#263238"></path><path d="M392,149.49l-1.38,10.67L385,158.08A25.16,25.16,0,0,1,392,149.49Z" style="fill:#f28f8f"></path><path d="M395.68,162l-6.75,2.23a3.49,3.49,0,0,0,4.43,2.39A3.74,3.74,0,0,0,395.68,162Z" style="fill:#b16668"></path><path d="M395,163.24a3.14,3.14,0,0,1,.86-.08,3.7,3.7,0,0,1-2.47,3.48,3.42,3.42,0,0,1-1.13.15A3.25,3.25,0,0,1,395,163.24Z" style="fill:#f28f8f"></path></g><path d="M412.24,179.83c-14,10.47-41.75,31-55.53,75.63l6.79,2.8c10.08-40.32,41.78-65.54,55.76-76Z" style="fill:#455a64"></path></g></g></g><g id="freepik--character-2--inject-13"><g id="freepik--Character--inject-13"><g id="freepik--Arm--inject-13"><path d="M261.82,154.1c8.52.21,13.48,4.87,16.26,13.73,2.72,8.66,6.64,21.85,7.55,28S289.48,230,289.48,230l-10.66.94-10.64-31.7-4.94-20.9Z" style="fill:#c8856a"></path><g id="freepik--Book--inject-13"><polygon points="298.51 245.93 298.46 221.63 266.2 202.57 266.25 226.87 298.51 245.93" style="fill:#3963C0"></polygon><polygon points="298.51 245.93 298.46 221.63 266.2 202.57 266.25 226.87 298.51 245.93" style="opacity:0.4"></polygon><path d="M297.58,221.86v23.52c-1.5.27-2,.62-3.43,2.07l0-23.35S294.08,223.69,297.58,221.86Z" style="fill:#f5f5f5"></path><path d="M293.23,225.74a4.13,4.13,0,0,1,1.87-3.22l2.37-1.34c1-.58,1.86-.09,1.86,1.1v23.19l-.81.46-.05-22.86c0-.72-.5-1-1.12-.66l-2.11,1.22a2.46,2.46,0,0,0-1.13,1.93l0,22.85-.92.52Z" style="fill:#3963C0"></path><path d="M293.23,225.74a4.13,4.13,0,0,1,1.87-3.22l2.37-1.34c1-.58,1.86-.09,1.86,1.1v23.19l-.81.46-.05-22.86c0-.72-.5-1-1.12-.66l-2.11,1.22a2.46,2.46,0,0,0-1.13,1.93l0,22.85-.92.52Z" style="opacity:0.25"></path><path d="M293.22,248.93,261,229.87V206.68a4.1,4.1,0,0,1,1.88-3.21l2.37-1.35a1.29,1.29,0,0,1,1.31-.11l32.26,19.05a1.34,1.34,0,0,0-1.32.12l-2.37,1.34a4.1,4.1,0,0,0-1.87,3.21Z" style="fill:#3963C0"></path><path d="M293.78,223.9a3.82,3.82,0,0,1,1.32-1.38l2.37-1.34a1.34,1.34,0,0,1,1.32-.12L266.53,202a1.29,1.29,0,0,0-1.31.11l-2.37,1.35a3.66,3.66,0,0,0-1.32,1.38Z" style="fill:#3963C0"></path><path d="M293.78,223.9a3.82,3.82,0,0,1,1.32-1.38l2.37-1.34a1.34,1.34,0,0,1,1.32-.12L266.53,202a1.29,1.29,0,0,0-1.31.11l-2.37,1.35a3.66,3.66,0,0,0-1.32,1.38Z" style="opacity:0.15"></path><path d="M265.86,207.43a9.55,9.55,0,0,1,5-2.86l1.54.91a9.42,9.42,0,0,0-5,2.86Z" style="fill:#3963C0"></path><path d="M287.05,219.92c2-1.83,3-2.41,5-2.84l1.54.9a9.39,9.39,0,0,0-5,2.85Z" style="fill:#3963C0"></path><g style="opacity:0.4"><path d="M265.86,207.43a9.55,9.55,0,0,1,5-2.86l1.54.91a9.42,9.42,0,0,0-5,2.86Z" style="fill:#fff"></path><path d="M287.05,219.92c2-1.83,3-2.41,5-2.84l1.54.9a9.39,9.39,0,0,0-5,2.85Z" style="fill:#fff"></path></g></g><path d="M287.05,245.28c-.29,1.22-2.93,1.8-3.93,1.47s-6.35-3-6.93-4-1.81-3.79-1.57-5,.83-4.21,2.07-3.88A1.7,1.7,0,0,1,278,235.4s.59-2.23,1.6-2.05a2.39,2.39,0,0,1,1.61,2.47,2.06,2.06,0,0,1,2.28,2.28c1.05.21,1.66,1.29,1.38,3.62a6.75,6.75,0,0,0,.6,2.6Z" style="fill:#c8856a"></path><path d="M261.48,153.36c7.4.63,12,2.77,15,9.41s7.49,23.95,7.49,23.95-4.8,6.09-18,5.09l-3.21-13.56Z" style="fill:#455a64"></path></g><g id="freepik--Backpack--inject-13"><path d="M194.34,175.76c.49.22,5.48-.94,10.17-2.76V155.25a9.93,9.93,0,0,0-8,7.57C193.13,174.82,194.34,175.76,194.34,175.76Z" style="fill:#263238"></path><path d="M231.06,147c4.42-.08,9.59,2.11,11.14,5.55.26.58,2.11,5.1,2.11,5.1,2.49,12,7,42.87,3.82,46.7-4.72,5.73-28,17-38.16,16.65-8.4-.27-16.52-7.92-17.68-10.22-3.84-7.58,6.23-49.79,8.89-54C205.51,149.87,225.43,147.07,231.06,147Z" style="fill:#3963C0"></path><path d="M248.13,204.33c-4.72,5.73-28,17-38.16,16.65a18.42,18.42,0,0,1-6.62-1.6c2.38,1.12,5.17,0,5.94-3.1s2.06-27.82,2.06-49l33-9.65C246.8,169.63,251.29,200.5,248.13,204.33Z" style="opacity:0.18"></path><path d="M200.13,159a11.1,11.1,0,0,1,1.05-2.65c4.33-6.87,24.25-9.67,29.88-9.76,4.42-.08,9.59,2.11,11.14,5.55.25.56,2.11,5.11,2.11,5.11-8.83,4.68-30.92,9.45-33.26,8.6C208.17,164.8,200.13,159,200.13,159Z" style="opacity:0.5"></path><path d="M194.09,191.63c.21-.1,3.36-2.3,3.72-2.47.64-.29,9.54,6.17,10.34,7.25.57.74-1,16.1-1.36,16.89-.14.28-3.58,2.18-3.72,2.47-.38.79-9.79-5.8-10.34-7.34S193.15,192.07,194.09,191.63Z" style="fill:#3963C0"></path><path d="M194.09,191.63c.21-.1,3.36-2.3,3.72-2.47.64-.29,9.54,6.17,10.34,7.25.57.74-1,16.1-1.36,16.89-.14.28-3.58,2.18-3.72,2.47-.38.79-9.79-5.8-10.34-7.34S193.15,192.07,194.09,191.63Z" style="opacity:0.18"></path><path d="M204.43,198.87c.56.75-1,16.1-1.36,16.9s-9.79-5.8-10.34-7.34.42-16.36,1.36-16.8C194.73,191.33,203.63,197.8,204.43,198.87Z" style="fill:#3963C0"></path><path d="M197.81,189.16c-.36.17-3.51,2.37-3.72,2.47.64-.3,9.54,6.17,10.34,7.24l3.72-2.46C207.35,195.33,198.45,188.86,197.81,189.16Z" style="opacity:0.4"></path><path d="M204.43,198.87c.56.75-1,16.1-1.36,16.9s-9.79-5.8-10.34-7.34.42-16.36,1.36-16.8C194.73,191.33,203.63,197.8,204.43,198.87Z" style="opacity:0.30000000000000004"></path><path d="M208.15,196.41c-.66-.47-2.72.54-3.63,1.26s-2,4.22-4.25,4.7-5.36-2.62-6-4.56-1.26-6-.11-7.38a3.7,3.7,0,0,1,4.65-1.19C200.42,190.16,208,194.64,208.15,196.41Z" style="fill:#3963C0"></path><path d="M208.15,196.41c-.66-.47-2.72.54-3.63,1.26s-2,4.22-4.25,4.7-5.36-2.62-6-4.56-1.26-6-.11-7.38a3.7,3.7,0,0,1,4.65-1.19C200.42,190.16,208,194.64,208.15,196.41Z" style="opacity:0.1"></path><path d="M198.24,198.16a1.7,1.7,0,0,1,.73,1.59.68.68,0,0,1-1.05.56,1.63,1.63,0,0,1-.73-1.59C197.28,198.12,197.75,197.87,198.24,198.16Z" style="fill:#37474f"></path><path d="M211.35,166.89s-3.11-2.13-6.88-4.31-5.87-2.92-7.21,1.45a100.73,100.73,0,0,0-2.92,11.73c-.72-.35-.64-1.65-.14-7.23.73-8.12-.3-11.75,8.11-15,13-5,24-9,31.44-7.34S243,152,244.31,157.25C244.31,157.25,235.25,165.47,211.35,166.89Z" style="fill:#37474f"></path></g><g id="freepik--bottom--inject-13"><path d="M271,355.36c.08-5,1.46-43.71,1.46-43.71l-21,11.42c2.24,22.42,4.42,33,4.6,36.91h0a4.35,4.35,0,0,1,.1.79c-.13,4.42,5.24,7,9.38,10.08a81,81,0,0,0,11.26,7.26c3,1.53,10,.78,10.81-1-5-3.8-10.18-7.21-13.74-11.8C271.91,362.89,270.88,360,271,355.36Z" style="fill:#c8856a"></path><path d="M295.52,383.25c.26,0,.57,2.7-.91,3.78-1.7,1.26-6.65,3.24-13.07,2.25s-9.84-2.93-12.36-5-6-5-8.92-5.67c-2.69-.64-5.6-1.86-6.44-2.66s-.6-4.19-.6-4.19Z" style="fill:#263238"></path><path d="M255.87,358.78s-.45-.06-.64.73-.54,3.65-1,5.17a25.23,25.23,0,0,0-.91,8.25c.3,1.76,4.67,3.13,7.46,4.21a36.57,36.57,0,0,1,9,5.6,28.22,28.22,0,0,0,13.44,5.11c6.41.31,10.61-1.14,12-3.2,1.67-2.56,1.16-5.2-6.11-8.58a76.32,76.32,0,0,1-7.81-4.81c-4.31-3.28-5.42-4.72-7.7-9.07a9.74,9.74,0,0,0-1-1.94,2.32,2.32,0,0,0-2.4-.69,50.46,50.46,0,0,0-6.31,1.14c-1,.39-2.42.85-2.44,2a3.45,3.45,0,0,0,.24,1.18c.08.24.13.56-.1.69s-.49,0-.68-.2a17.75,17.75,0,0,1-1.91-2.25,7.55,7.55,0,0,0-1.13-1.13,10.45,10.45,0,0,1-1.24-.79A2.24,2.24,0,0,1,255.87,358.78Z" style="fill:#37474f"></path><path d="M290.19,376.62c-9.3.26-13.08,6.5-13.58,9.73a24.17,24.17,0,0,0,6.55,1.5c6.41.31,10.88-1.13,12.23-3.19C297,382.25,296.7,379.14,290.19,376.62Z" style="fill:#fafafa"></path><path d="M275.6,377.31a.46.46,0,0,1-.29-.1.41.41,0,0,1,0-.59c1.34-1.4,5.81-4.27,9.17-3.82a.42.42,0,0,1,.39.47.44.44,0,0,1-.51.35c-3.14-.41-7.3,2.44-8.37,3.55A.43.43,0,0,1,275.6,377.31Z" style="fill:#f0f0f0"></path><path d="M271.67,375a.48.48,0,0,1-.28-.1.4.4,0,0,1-.05-.59c1.35-1.4,5.82-4.28,9.18-3.82a.41.41,0,0,1,.38.47.43.43,0,0,1-.51.35c-3.14-.42-7.3,2.44-8.36,3.55A.45.45,0,0,1,271.67,375Z" style="fill:#f0f0f0"></path><path d="M268.05,372.48a.49.49,0,0,1-.28-.11.39.39,0,0,1,0-.58c1.34-1.41,6.82-4.86,10.17-4.41a.42.42,0,1,1-.12.82c-3.14-.41-8.3,3-9.36,4.14A.54.54,0,0,1,268.05,372.48Z" style="fill:#f0f0f0"></path><path d="M264.5,369.92a.56.56,0,0,1-.27-.1.39.39,0,0,1-.06-.59c1.85-2,7.59-4.87,10.94-4.42a.42.42,0,0,1,.39.47.43.43,0,0,1-.51.35c-3-.41-8.49,2.38-10.13,4.14A.48.48,0,0,1,264.5,369.92Z" style="fill:#f0f0f0"></path><path d="M226.86,333.65l-20.34-3c-1,12.4-.55,23.33-1.94,34.41-.26,2.08-2.58,16.13-2.39,20.52.29,6.6,8.93,7.45,10,3.67s5.58-21.41,5.88-23.1c1.9-6.64,3.83-14.12,7.77-28.25C226,337.27,226.68,334.24,226.86,333.65Z" style="fill:#c8856a"></path><path d="M215.58,392.05c-.15,4.08-1.4,7.45-3.29,9.06a7.68,7.68,0,0,1-7.35,1.66c-2.79-.78-6.05-2.75-7-6-1.13-3.94-.57-6.15.23-9.65Z" style="fill:#263238"></path><path d="M204.74,363.69c-1.17,0-1.74,5.13-2.64,10.22-1,5.45-2.87,7.64-3.71,12.11-1,5.11-.61,8,1.22,11.2s8.66,6.55,12.29,2.26c3-3.51,4.16-7.33,4.14-12.48a105.3,105.3,0,0,1,1-13c.4-3.83,2-7.39,1-7.87-.68,1.92-1.4,4.8-1.78,4a7.85,7.85,0,0,1,.05-1.45,1.53,1.53,0,0,0-.26-1.25,2.28,2.28,0,0,0-1.26-.59c-1.14-.26-4.63-1.23-5.79-1.38-.57-.07-1.15-.12-1.73-.14a5,5,0,0,0-1.49.12,1,1,0,0,0-.65.5,1.6,1.6,0,0,0-.09.58,3.74,3.74,0,0,1-.19,1.05c0,.15-.17.33-.34.28s-.18-.19-.17-.32c0-.62.13-1.06.19-1.78,0-.34.11-.79.13-1.12S204.7,364,204.74,363.69Z" style="fill:#37474f"></path><path d="M197.81,389a13.51,13.51,0,0,0,1.36,8.46c1.83,3.2,8.77,6.2,12.86,2.3a13.46,13.46,0,0,0,3.55-7.69C213.67,388.52,201.19,386.21,197.81,389Z" style="fill:#fafafa"></path><path d="M213.05,386.82a.39.39,0,0,1-.14-.05s-5.77-3-11-2.17a.44.44,0,0,1-.51-.31.4.4,0,0,1,.35-.46c5.59-.92,11.41,2.15,11.62,2.25a.37.37,0,0,1,.17.53A.44.44,0,0,1,213.05,386.82Z" style="fill:#f0f0f0"></path><path d="M202.31,380.79a.44.44,0,0,1-.35-.28.38.38,0,0,1,.29-.49c5.29-1.39,11.4,2,11.61,2.16a.38.38,0,0,1,.16.54.48.48,0,0,1-.59.14c-.05,0-6-3.38-10.93-2.08Z" style="fill:#f0f0f0"></path><path d="M202.78,377.19a.43.43,0,0,1-.35-.28.38.38,0,0,1,.28-.49c5.82-1.62,11.62,2,11.82,2.14a.38.38,0,0,1,.12.55.45.45,0,0,1-.6.1s-5.67-3.54-11.08-2A.43.43,0,0,1,202.78,377.19Z" style="fill:#f0f0f0"></path><path d="M203.31,373.15a.45.45,0,0,1-.34-.27.38.38,0,0,1,.27-.5c5.46-1.6,11.68,2.12,11.89,2.25a.39.39,0,0,1,.14.55.46.46,0,0,1-.6.12s-6.09-3.66-11.16-2.17A.68.68,0,0,1,203.31,373.15Z" style="fill:#ebebeb"></path><path d="M226.36,199.26a9,9,0,0,1-1.87,4.31c-5.51,6.82-8.14,13.49-9.14,26.26-2.47,31.59-3.16,64.4-3.16,64.4-.35,2.78-3,7.61-4.78,22-1.55,12.6-2,29.95-2,29.95s14.77,2.65,19.12-1.36c2.46-9.36,10.14-33.09,14.31-46.7,3.78-12.36,6.75-30.65,6.75-30.65l4.49,25.74a71.7,71.7,0,0,0-.53,16.48c.65,8.51,3.66,30.62,3.66,30.62,2.69,2.95,15.44,2.92,18.78-1.19,0,0,3.71-37.16,4.25-47.4,1-19.05,4.83-57.58-3.44-83.67-.35-1.11-1.92-7.33-1.92-7.33C263.77,206,235.31,205.61,226.36,199.26Z" style="fill:#263238"></path><path d="M238.83,208.79a.4.4,0,0,0-.47.24c-.44,1.46-.79,2.77-1.13,4-1.23,4.58-2.11,7.89-5.89,11.32a12.89,12.89,0,0,1-9.25,3.08c2-9.39,5.64-16.8,11.18-22.8a.34.34,0,0,0,0-.5.41.41,0,0,0-.54,0c-5.71,6.17-9.43,13.79-11.43,23.47,0,0,0,0,0,.05v0a85.34,85.34,0,0,0-1.52,11.71c-1.14,17.78-2.88,44.64-3.48,51.69a49.86,49.86,0,0,1-2.64,11.12c-1.12,3.54-2.39,7.55-3.61,13.06-2.63,11.93-2.47,31.72-2.47,31.92a.38.38,0,0,0,.37.35h0a.36.36,0,0,0,.38-.35c0-.2-.16-19.92,2.45-31.77,1.21-5.49,2.48-9.49,3.6-13A50.59,50.59,0,0,0,217,291.21c.6-7.06,2.33-33.93,3.48-51.71a85.63,85.63,0,0,1,1.45-11.34l.4,0a13.45,13.45,0,0,0,9.54-3.3c3.93-3.56,4.84-6.95,6.09-11.64.34-1.27.69-2.57,1.13-4A.35.35,0,0,0,238.83,208.79Z" style="fill:#455a64"></path><path d="M205.53,342.3c2.68,2.67,14.63,4.58,19,2.54l-2.12,6.84s-3.15,1.36-9.34.54c-7.18-1-7.85-3.22-7.85-3.22Z" style="fill:#455a64"></path><path d="M253.22,340.33c3.65,1.35,14.63,1.05,18.78-1.19l-.38,5.7s-2.9,2-9.13,2.36-8.68-1.39-8.68-1.39Z" style="fill:#455a64"></path><path d="M245.6,267.49l5.48-31.06a20.75,20.75,0,0,0,16.63-6.88s-.08,7.83-13.5,10.82L248,269l2.05,24.28Z"></path></g><g id="freepik--top--inject-13"><path d="M217.16,216.77c2.17-11.07,6.71-17.25,6.81-20.75,0,0-3.19-17.61-3.64-21.76-1.19-10.81-1.1-16.09,1.26-18.8,2.21-.62,13-2.73,14.69-2.81,9.05-.38,10.38-.36,17.35-.25,2.61.13,7.85,1,7.85,1a52.39,52.39,0,0,1,7.78,7.72c5.54,6.42,7.27,10.74,6.39,17.35A15.82,15.82,0,0,1,272,186.2c-.43,3.2-1.12,12.26-1.12,12.26.08,3.55,2.31,8.51,4.11,17.08C265.76,229,228.61,226.17,217.16,216.77Z" style="fill:#f0f0f0"></path><g id="freepik--head--inject-13"><path d="M266.07,124c2.19-4.65.37-11-2-14-3.42-4.35-8.88-6.34-17.21-6.08-6.34.2-14,2.79-15.38,9.24-5.94,2.79-4.11,11-2.65,14.46,3.06,7.28,7.55,13,7.52,16.87Z" style="fill:#263238"></path><path d="M262.67,114.12c1.41,1.11,3.76,4.22,3.4,9.9-.19,1.71.36,3.83.36,7,0,12.13-3.37,14.66-6.65,16.09-1.95.86-3,1-6.15,1v5.62s7.09,11.08,3.87,20.78h0c-14.72-10-21.2-21.67-21.21-21.69l-.1-13.68h0c-.08.06-2,1.69-5,0-3.3-1.79-4.59-7.37-2.42-9.93s5.26-1,6.62,1.29,4.77,1.63,3.75-1.82c1.55-.73,3.49-2.31,2.07-8.64a7,7,0,0,1,1.82-5.79c2.56-2.28,7.56-1.75,10.38,1.09C257.26,112.22,259.73,111.81,262.67,114.12Z" style="fill:#c8856a"></path><path d="M250.59,136.64l5.6,2a2.86,2.86,0,0,1-3.69,1.88A3.13,3.13,0,0,1,250.59,136.64Z" style="fill:#af6152"></path><path d="M253.8,140.62a2.66,2.66,0,0,0-2.65-2.64,2.74,2.74,0,0,0-.64.08,3.11,3.11,0,0,0,2,2.43A2.92,2.92,0,0,0,253.8,140.62Z" style="fill:#f28f8f"></path><polygon points="255.07 124.28 255.83 135.11 261.24 132.55 255.07 124.28" style="fill:#af6152"></polygon><path d="M253.63,148.11c-3.9-.22-12.21-2.35-14.24-7.52,0,0,.31,3.68,5.08,6.54,3.76,2.26,9.14,2.73,9.14,2.73Z" style="fill:#af6152"></path><path d="M250.65,127.69a1.72,1.72,0,1,1-1.55-1.87A1.72,1.72,0,0,1,250.65,127.69Z" style="fill:#263238"></path><path d="M263.5,127.26a1.72,1.72,0,1,1-1.29-2.07A1.71,1.71,0,0,1,263.5,127.26Z" style="fill:#263238"></path><path d="M262.86,120.52a2.45,2.45,0,0,0-3,1.81l4.78,1.16A2.46,2.46,0,0,0,262.86,120.52Z" style="fill:#263238"></path><path d="M246.7,121.43a2.46,2.46,0,0,0-1.3,3.23l4.54-1.93A2.48,2.48,0,0,0,246.7,121.43Z" style="fill:#263238"></path><path d="M261.61,107.87H243.13c-12.49,4.91-7.89,21-5.28,22.92,7.42-3.12,6.93-10.52,6.39-14.74,3.76,3.52,10,6.12,13,6.43-1.36-1.64-2.5-5.71-2.5-5.71a15,15,0,0,0,5.84,6.33c4.57,2.63,7.68.87,7.68.87S269.77,112.82,261.61,107.87Z" style="fill:#263238"></path></g><path d="M228.37,153.76a35.05,35.05,0,0,1,9.09,20.52c3.14,32.7-20.79,39.39-20.79,39.39a64.61,64.61,0,0,1,2-8.24s14.09-12.89,12.52-29.6c-1.11-11.91-6.54-19.6-9.57-20.37A33.35,33.35,0,0,1,228.37,153.76Z" style="fill:#263238"></path><path d="M212.51,214.16c3.13-1.09,5.19-2.41,8.38-5.33,5.9-5.41,6.22-6.22,11.13-11,1.66-1.62,3.15-3.23,3.85-4a19.71,19.71,0,0,0,3.7-4.07,12.23,12.23,0,0,0,2-4.65c.16-1.77.72-3.59.3-5.38-.12-.52-.31-1-.41-1.54a11.44,11.44,0,0,1-.1-2.19,10.5,10.5,0,0,0-.65-3.77,6.61,6.61,0,0,0-1.85-2.61,2.32,2.32,0,0,0-2.32-.69c.23.94.4,1.74.61,2.84a7.93,7.93,0,0,1-1.79,4.28c-1.81,2.61-3.4,4-3.66,3.5s.39-2.12,0-4.67-1.11-3.45-1.91-3.62c-1.26-.25-1.19,1.1-1.62,3.17-.51,2.48-1.5,3.87-1.46,7.49,0,3.17.58,3.87-1.12,5.37a33.71,33.71,0,0,1-3.46,2.34s.46-2.8,1.25-8.84c1.64-12.55.51-22.9-2-24.39-5.5,1.62-10.86,4.73-13.28,14.16-2.58,10-2.59,11.52-4.76,31.3C201.73,216.31,207.76,215.82,212.51,214.16Z" style="fill:#c8856a"></path><path d="M222.14,189.68c-4.63,2.59-13.16,6.71-14.08,11.56,0,0-.72-3.85,4.85-8.13a69.71,69.71,0,0,1,9.68-6.39Z" style="fill:#af6152"></path><path d="M222.61,188.35s1.39-8.67,2.1-13c1-6.07,1.18-15.37-3.12-19.85-3.85.9-9.71,2.86-12,7.08s-2.49,7.57-3.55,14.61c-.31,2-1.08,7.9-1.38,11.2C210.3,190.86,217.43,191.16,222.61,188.35Z" style="fill:#455a64"></path></g></g></g><g id="freepik--character-1--inject-13"><g id="freepik--character--inject-13"><g id="freepik--bottom--inject-13"><path d="M60.23,399.29c1.15-12.24.26-18.31,1.69-37.43h0c.19-4.9.48-10.16.91-14.82,1.44-15.69,4-21,4.27-24,0,0,.93-24.43,2.69-58.79.83-16.16,5.62-21,9.55-29.47l44.51.95c4.52,21.29,5,67.51,4.34,89.34-.31,11.13-5.14,66.68-5.25,68-.43,4.86,0,6.78,1.82,8.87,3.89,4.36,9.59,8.56,14.51,12.39-.77,1.9-7.65,2.59-10.59,1.08a76.71,76.71,0,0,1-11-7.31c-4-3.13-9.23-5.68-9.2-10.31a4.68,4.68,0,0,0-.12-.82c0-2.71-5.54-39.66-5.86-48.92-.28-7.95,1-21.42,1-21.42l-4.41-33.77S95.53,312.69,92,326.21c-2.84,11-7.53,29.78-10.75,43.32h0c-3.15,15.62-6.92,23.73-7.81,31.56-.25,1.87-3.3,20.18-4.26,24.37s-10.15,4.11-10.59-3.15C58.34,417.48,60,401.6,60.23,399.29Z" style="fill:#ffbda7"></path><path d="M99.11,292.86l4.26-24.2s14.53-1.41,19.91-6.37c0,0-6.84,9.24-16.71,10.56l-4.56,20,1.47,33.45Z" style="fill:#9a4a4d"></path><path d="M146.79,420.3c.26,0,.61,2.8-.78,4-1.61,1.36-6.31,3.56-12.49,2.7s-9.49-2.81-12-4.91-5.88-5.05-8.67-5.7c-2.59-.6-5.4-1.8-6.22-2.62s-.67-4.37-.67-4.37Z" style="fill:#263238"></path><path d="M108.31,395.66s-.47,0-.64.83c-.2,1-.44,3.84-.86,5.45a28.9,28.9,0,0,0-.7,8.66c.32,1.84,4.54,3.15,7.24,4.21a34.47,34.47,0,0,1,8.7,5.63c2.88,2.42,9,4.89,13,5,6.15.16,10.15-1.47,11.41-3.66,1.55-2.72,1.25-5.21-5.79-8.56-1.33-.64-6-3.47-7.59-4.49a37.48,37.48,0,0,1-4.77-3.63,25.53,25.53,0,0,1-2.13-2.16,9.6,9.6,0,0,1-1.77-2.31c-.08-.18-.13-.4-.2-.6a9.44,9.44,0,0,1-.44-1.66c-.11-.59-.17-1.44-.73-1.8a4.8,4.8,0,0,0-2.52-.33,29,29,0,0,0-3.83.72,3.52,3.52,0,0,0-2.65,1.81,5.22,5.22,0,0,0-.61,2.55c0,.41,0,.83,0,1.24,0,.18.07.5-.17.42s-.49-.69-.58-.9c-.19-.47-.31-1-.52-1.42a7.31,7.31,0,0,0-.87-1.51,8,8,0,0,0-1.1-1.15,11.31,11.31,0,0,1-1.2-.79A2.8,2.8,0,0,1,108.31,395.66Z" style="fill:#37474f"></path><path d="M141.8,413.76c-8.91.52-12.65,6.88-13.06,10.28a20.86,20.86,0,0,0,6.3,1.39c6.15.16,10.41-1.46,11.66-3.66C148.16,419.21,148.08,416.22,141.8,413.76Z" style="fill:#fff"></path><path d="M127.57,414.6a.41.41,0,0,1-.27-.1.43.43,0,0,1,0-.61c1.25-1.51,5.72-4.37,8.95-4a.42.42,0,0,1,.38.48.42.42,0,0,1-.48.38c-3-.35-7.19,2.48-8.19,3.68A.43.43,0,0,1,127.57,414.6Z" style="fill:#f0f0f0"></path><path d="M123.76,412.33a.47.47,0,0,1-.27-.1.44.44,0,0,1-.06-.62c1.26-1.5,5.73-4.37,9-4a.43.43,0,0,1,.38.48.42.42,0,0,1-.48.38c-3-.35-7.19,2.49-8.19,3.68A.41.41,0,0,1,123.76,412.33Z" style="fill:#f0f0f0"></path><path d="M120.24,409.74a.48.48,0,0,1-.28-.1.44.44,0,0,1,0-.62c1.25-1.5,5.74-4.37,9-4a.43.43,0,0,1,.38.48.45.45,0,0,1-.49.39c-3-.36-7.19,2.48-8.18,3.67A.44.44,0,0,1,120.24,409.74Z" style="fill:#f0f0f0"></path><path d="M116.78,407.15a.41.41,0,0,1-.27-.1.44.44,0,0,1-.06-.61c1.73-2.13,6.47-4.41,9.7-4a.43.43,0,0,1,.38.48.44.44,0,0,1-.48.39c-2.91-.35-7.39,1.81-8.92,3.7A.44.44,0,0,1,116.78,407.15Z" style="fill:#f0f0f0"></path><path d="M72.52,428.12c-.35,4.43-1.1,7.36-2.73,9.93s-4.62,3.32-7.61,2.5-6.8-2.95-7.58-6.79-1.23-6.48-.46-10.58Z" style="fill:#263238"></path><path d="M60.53,395.61c-1.24.07-1.7,6.14-2.54,12.09-.91,6.37-2.87,9-3.67,14.2-.91,6,0,8.67,2,12.34s9.37,7.38,13.14,2.27c3.08-4.17,3.3-8.85,3.16-14.84a133.46,133.46,0,0,1,.72-15.14c.34-4.48,2-9.48.89-10-.2,1-.39,1.8-.49,2.45a13.05,13.05,0,0,1-.79,2.56c-.13.33-.42.68-.52.13a3.44,3.44,0,0,1,0-1.11c.21-1.65-.62-1.8-1.06-1.94a56.47,56.47,0,0,0-5.73-.94c-1-.08-4.21-.29-4.65.24a3.64,3.64,0,0,0-.45,1.72c-.13.9-.35,1.55-.37,1.27a21.28,21.28,0,0,1,.08-2.38c0-.39.09-1.22.1-1.61S60.49,396,60.53,395.61Z" style="fill:#37474f"></path><path d="M53.91,425.37A14.91,14.91,0,0,0,56,434.52c2,3.66,10,7.4,13.74,2.29,1.88-2.54,2.43-5.58,2.75-8.69C70.41,424.08,57.44,422,53.91,425.37Z" style="fill:#fff"></path><path d="M70,421.55a.42.42,0,0,1-.15,0s-5.73-2.52-11.34-1.35a.46.46,0,0,1-.54-.36.45.45,0,0,1,.35-.54c5.94-1.24,11.73,1.32,11.95,1.42a.47.47,0,0,1,.2.62A.46.46,0,0,1,70,421.55Z" style="fill:#f0f0f0"></path><path d="M58.83,415.7a.47.47,0,0,1-.38-.31.46.46,0,0,1,.3-.58c5.59-1.77,11.7,1.19,11.93,1.32a.46.46,0,1,1-.44.8c-.06,0-6-2.89-11.21-1.24A.45.45,0,0,1,58.83,415.7Z" style="fill:#f0f0f0"></path><path d="M59.12,411.5a.47.47,0,0,1-.38-.31.46.46,0,0,1,.29-.58c6.15-2.06,11.94,1.15,12.16,1.29a.46.46,0,0,1,.14.63.47.47,0,0,1-.64.14s-5.64-3.11-11.37-1.19A.47.47,0,0,1,59.12,411.5Z" style="fill:#f0f0f0"></path><path d="M59.51,407.36a.46.46,0,0,1-.38-.3.47.47,0,0,1,.28-.59c5.77-2,12,1.28,12.24,1.42a.46.46,0,0,1-.47.79c-.06,0-6.1-3.22-11.46-1.34A.5.5,0,0,1,59.51,407.36Z" style="fill:#ebebeb"></path><path d="M76.23,234.68c-5.48,9.5-8.48,17.3-9.63,45.89s-1.5,37.36-1.69,40.8-3.6,8.53-4.34,24.57c-.92,19.78-.15,35.38-.15,35.38s1.92,2.93,8.4,3.65a16.75,16.75,0,0,0,9.68-1.51s8.6-29.89,11.09-40.08S99,299.7,99,299.7l3.34,27.36s-2,9.34-.52,24.27,3.79,26.83,3.79,26.83a28,28,0,0,0,9.85,2.12,20.37,20.37,0,0,0,9-2.11s5.06-41,5.42-57.91,0-59.94-3.28-85Z" style="fill:#37474f"></path><path d="M105,267.35,99,299.7l3.34,27.36-1.08-27.68,5.35-26.53c4.09-.89,13.46-5.57,16.15-12.49C116.31,266.79,105,267.35,105,267.35ZM86.38,248c.78-2.71,1.6-5.41,2.51-8.12a40.1,40.1,0,0,0-3.83,7.67,76.11,76.11,0,0,0-2.62,8.17c-.7,2.76-1.3,5.56-1.73,8.38A56.55,56.55,0,0,0,80,272.6c.74-2.76,1.43-5.51,2.12-8.25s1.37-5.49,2.09-8.21S85.62,250.69,86.38,248Zm-4-2.13c1-1.65,1.91-3.3,2.79-5a30,30,0,0,0-3.95,4.25,40.54,40.54,0,0,0-3.25,4.81,36.57,36.57,0,0,0-2.49,5.25A23.24,23.24,0,0,0,74,260.76l2.71-5.06c.91-1.65,1.82-3.31,2.78-4.94S81.39,247.49,82.34,245.84Zm-5.7,108.32q-2.65,13.14-5,26.34,3.33-13,6.33-26c2-8.71,3.94-17.4,5.85-26.16s3.07-17.65,4.12-26.53,1.9-17.77,2.63-26.68c-1.42,8.83-2.72,17.67-4,26.5s-2.68,17.64-4.49,26.35S78.38,345.4,76.64,354.16Zm47.11-43.43c.09,3.88.24,7.78.09,11.61s-.48,7.73-.75,11.6l-.84,11.64q-.84,11.63-1.42,23.3,1.62-11.56,2.82-23.18c.8-7.75,1.56-15.47,2-23.3.14-7.87-.36-15.61-.89-23.39s-1.32-15.52-2.36-23.24l1,23.32C123.49,303,123.65,306.85,123.75,310.73Z" style="fill:#263238"></path></g><g id="freepik--top--inject-13"><path d="M189.31,191.74a4,4,0,0,0-2.38-.49,27.14,27.14,0,0,0-3.87.9c-2,.44-5.15,1.17-7.1.51-.39-.13-1.17-.53-.48-.87a18.14,18.14,0,0,0,2.65-1.41,3.62,3.62,0,0,0,1.58-2.46,1.25,1.25,0,0,0-.18-.87c-.26-.34-.54-.25-.85-.13a7.61,7.61,0,0,1-1,.28l-2.16.53c-4.19,1.07-8.48,2.49-11.66,5.55-.46.45-3.52,4.12-5.4,6.14-1.6,1.88-11.77,11.06-11.77,11.06s-5-5.78-8.62-9.85c-6.47-7.23-9-10.12-11.26-12.53-2-2.12-5.33-4.69-9.11-5.19l2.49,26.33s12.35,11.38,16,14.31c7.41,6,9.94,7.74,13.91,5,4.28-2.94,7.16-6.06,11.41-13.57,3.48-6.14,4.34-7.58,5.55-9.44,1-1.59,3.52-1.46,4.85-1.49a20,20,0,0,0,5.43-.72,18,18,0,0,0,4.49-1.67,5.53,5.53,0,0,0,1.93-1.3,15.77,15.77,0,0,1,.88-1.74c.48-.58,1.23-.92,1.65-1.55a7.49,7.49,0,0,0,.61-1.68,3,3,0,0,1,1.81-1.67,2.87,2.87,0,0,0,1.08-.71C190.12,192.46,189.78,192,189.31,191.74Z" style="fill:#ffbda7"></path><path d="M116.14,181.7c5,.75,6.37,1.52,10.56,5.65s9.36,9.64,9.36,9.64a34.52,34.52,0,0,1-7.12,12.28c-2,2.12-6.8,4.84-6.8,4.84l-5-3.66Z" style="fill:#e6e6e6"></path><path d="M146.65,210.48h0a12.48,12.48,0,0,1-1.35-1.57,12,12,0,0,0-3.21,11.45A15.28,15.28,0,0,1,146.65,210.48Z" style="fill:#f0997a"></path><path d="M173.22,193.73a13.26,13.26,0,0,1-6,4.27,5.5,5.5,0,0,0,3.76-.73A5.13,5.13,0,0,0,173.22,193.73Z" style="fill:#f0997a"></path><path id="freepik--chest--inject-13" d="M70.36,247.88c2.14-8.87,4-15.66,4-17.63.09-8.54-1.91-19.81-2.55-24.79-1.38-10.83,1.74-21,4.31-23.06l12.49-3s14.52.31,16.89.6c1.17.14,10.6,1.7,10.61,1.71s3.42,4.44,7.36,10.65c6.4,10.09,6.92,14.81,5,23.7-2.65,12.19-.24,24.29-.44,33.6C120.21,258.25,90.06,262.62,70.36,247.88Z" style="fill:#455a64"></path><path d="M82.46,139.81c0,.27-1.52,1.07-1.79,1.32a8.41,8.41,0,0,0-1.37,1.61A11.43,11.43,0,0,0,77.78,147a76,76,0,0,0-.54,7.7,49,49,0,0,1-1.33,7.36,25.24,25.24,0,0,0-.9,6.51,8.5,8.5,0,0,0,2.44,5.95,14.2,14.2,0,0,1,0-6.58,13.38,13.38,0,0,0,.82,4,9.48,9.48,0,0,0,4.48,4.51,24.31,24.31,0,0,0,6.15,2,44.71,44.71,0,0,0,10.5,1,64.39,64.39,0,0,0,6.51-.51,18.79,18.79,0,0,0,8-2.48c2.36-1.54,4.13-4.24,3.84-7a8.14,8.14,0,0,1,1.12,4.49,8.93,8.93,0,0,0,2.14-6.25,15.42,15.42,0,0,0-1.83-6.47,30,30,0,0,1-1.87-3.87,5.47,5.47,0,0,1-.16-3.82c.38-.8,1-1.54,1.41-2.36a14.45,14.45,0,0,0,1.64-7.2c-.36-5.14-3.38-11.86-12.77-14C99.63,128.27,84.59,129.66,82.46,139.81Z" style="fill:#263238"></path><path d="M83.24,260.49,61.81,251.2S56.73,264.51,55,275c-1.33,8.21,1.09,12.81,6.31,16.76s14.54,10,19,9.76S90,299,91.7,295.37s1.71-36.93,1.71-36.93Z" style="fill:#3963C0"></path><path d="M83.24,260.49,61.81,251.2S56.73,264.51,55,275c-1.33,8.21,1.09,12.81,6.31,16.76s14.54,10,19,9.76S90,299,91.7,295.37s1.71-36.93,1.71-36.93Z" style="fill:#fff;opacity:0.4"></path><path d="M78.56,298.55c.09,2,.88,3,4.4,2.64H83c.15-.05.31-.08.48-.12,3.52-.88,6.88-2.86,8.21-5.69,1.74-3.67,1.71-36.93,1.71-36.93l-10.17,2.05C80.63,274,78.44,295.92,78.56,298.55Z" style="fill:#3963C0;opacity:0.30000000000000004"></path><path d="M93.41,258.44c-9.94-5.19-23.59-12.38-27.12-11.41s-5.61,5.42-6.63,9.35,2.52,13.49,5.06,15.18,12.63-2.09,15.07-4.71a17.36,17.36,0,0,0,3.45-6.36Z" style="fill:#3963C0"></path><path d="M116.14,181.7l-8.86-1.45c4.51,9.31-.52,30.68-6.47,45.94s-17.57,34.3-17.57,34.3l10.17-2.05s9.9-15.88,15.86-31.14S120.65,191,116.14,181.7Z" style="fill:#3963C0"></path><path d="M116.14,181.7l-8.86-1.45c4.51,9.31-.52,30.68-6.47,45.94s-17.57,34.3-17.57,34.3l10.17-2.05s9.9-15.88,15.86-31.14S120.65,191,116.14,181.7Z" style="opacity:0.2"></path><g id="freepik--head--inject-13"><path d="M86.66,166.27a5.89,5.89,0,0,1-5.24-2.08c-2.72-3.07-2.92-6.13-1.58-8.14,1.1-1.65,3.75-2.67,5.57-1.5s2,2.24,2.7,3.63,2.64.35,2.12-5.16c3.86-1.69,3.37-8,5.49-10.51,3.32-3.95,8.62-2.79,10.33-1.81a7.06,7.06,0,0,1,7.27-.31c2.54,1.4,4.19,4.28,4.89,14.07.72,10-1.17,16.57-3.55,18.63-1.64,1.42-4.66,2.34-8.22,2.07l-.09,5s4.31,6.46-8.69,4.27c-6.4-1.09-9-4.53-9-4.53l.23-15.1S88.63,166,86.66,166.27Z" style="fill:#ffbda7"></path><path d="M106.44,175.16c-5.14-.3-12-2.24-13.77-5.53,1,3.53,4.54,5.42,7.41,6.28a30.56,30.56,0,0,0,6.28,1.2Z" style="fill:#f0997a"></path><path d="M108.27,165a2.94,2.94,0,0,1-3.5,2.19,2.88,2.88,0,0,1-2.23-3.43Z" style="fill:#b16668"></path><path d="M102.5,164.66a2.89,2.89,0,0,0,2.27,2.49,3,3,0,0,0,1,0A3,3,0,0,0,102.5,164.66Z" style="fill:#f28f8f"></path><path d="M115.4,153.73c.29.87-.32,1.15-1.16,1.43s-1.6.46-1.9-.42a1.61,1.61,0,1,1,3.06-1Z" style="fill:#263238"></path><path d="M112.54,153a4.35,4.35,0,0,1,1.21-.42,3.51,3.51,0,0,1,1.25-.06,3.93,3.93,0,0,1,1.27.39s0,.11,0,.1c-.34,0-.64-.1-1.13-.12a6,6,0,0,0-1.4.15,5.72,5.72,0,0,0-1.59.58l-.52.27s-.08-.09-.06-.13A2.78,2.78,0,0,1,112.54,153Z" style="fill:#263238"></path><path d="M99.16,154c-.21.89.42,1.12,1.29,1.32s1.63.3,1.84-.6a1.61,1.61,0,1,0-3.13-.72Z" style="fill:#263238"></path><path d="M101.93,152.94a4.1,4.1,0,0,0-1.25-.31,3.45,3.45,0,0,0-1.24.06,4.1,4.1,0,0,0-1.23.5s0,.12,0,.1a10.33,10.33,0,0,1,1.11-.22,5.54,5.54,0,0,1,1.41,0,5.92,5.92,0,0,1,1.64.42l.54.23s.07-.1,0-.14A2.89,2.89,0,0,0,101.93,152.94Z" style="fill:#263238"></path><path d="M115.51,148.16l-3.76-1.32a2,2,0,0,1,2.5-1.23A2,2,0,0,1,115.51,148.16Z" style="fill:#263238"></path><path d="M101.54,146.77l-3.81,1.92a2,2,0,0,1,.85-2.81A2.27,2.27,0,0,1,101.54,146.77Z" style="fill:#263238"></path><path d="M120.28,149.29l-.75-.07a22.5,22.5,0,0,0-7.45.4c-2.35.74-3.16,1.53-4.47,1.57s-2.34-.73-4.92-1.36a26.52,26.52,0,0,0-8-.05l-.8.11a1.18,1.18,0,0,0-.83,1.28,2.82,2.82,0,0,0,.84,1.45,2,2,0,0,1,.29.59,25.46,25.46,0,0,0,1.16,4,5.17,5.17,0,0,0,1.09,1.43,4.57,4.57,0,0,0,.54.42l.31.18a5.08,5.08,0,0,0,.91.39l.16,0,.24.06.25.06c.24,0,.51.08.79.1l.34,0h.43c3.27-.06,4.57-1.58,5.31-3.14s.44-3.72,2-3.75h.14l.14,0c1.12.22,1.08,2.21,1.85,3.63a6.4,6.4,0,0,0,1.14,1.54l.27.24.14.11.15.1a.51.51,0,0,0,.13.09l.15.09.11.07.08,0a4.75,4.75,0,0,0,1.33.47l.12,0a7.36,7.36,0,0,0,1.61.11,4.45,4.45,0,0,0,4.49-2.91,24.63,24.63,0,0,0,.75-4.08,1.18,1.18,0,0,1,.25-.54,2.59,2.59,0,0,0,.62-1.51A1.26,1.26,0,0,0,120.28,149.29Zm-15.45,6.09a4.27,4.27,0,0,1-1,2.16h0a4.57,4.57,0,0,1-3.51,1.3,4.19,4.19,0,0,1-3.51-1.48l-.11-.15-.11-.15-.09-.14-.08-.13-.06-.1,0-.09a1.09,1.09,0,0,1-.08-.15h0A3.25,3.25,0,0,1,96,156h0l-.1-.27c-.05-.15-.09-.3-.13-.43s0-.06,0-.08a.31.31,0,0,1,0-.08c-.31-1.07-.71-3.17-.17-3.66s2-1,4.46-.84h.26c.38,0,.75.09,1.12.16l.44.09a10.23,10.23,0,0,1,1.1.32l.34.12.37.16.07,0,.14.07a2.27,2.27,0,0,1,.75.54C105.13,152.78,105.05,154.18,104.83,155.38Zm14.2-.78a4.46,4.46,0,0,1-2.14,3.49,4.55,4.55,0,0,1-1.8.42,4.18,4.18,0,0,1-3.72-1.53h0l-.07-.1-.08-.11,0-.06-.1-.17-.11-.2a.41.41,0,0,0,0-.09s0,0,0-.06l0-.08a.14.14,0,0,1,0-.06,5.08,5.08,0,0,1-.28-.79c-.3-1.19-.5-2.58-.07-3.25s2.19-1.43,3.91-1.68c.4,0,.77-.09,1.12-.1h1l.31,0c.2,0,.39.05.56.09l.14,0h0l.1,0,.13,0,.17,0,.27.09,0,0a2.31,2.31,0,0,1,.62.35C119.42,151.4,119.22,153.52,119,154.6Z" style="fill:#37474f"></path><path d="M112.87,160l-5.61,2.25-1-7c.23-1,.45-2.11,1.37-2.18Z" style="fill:#f0997a"></path><path d="M94.07,150.7l-8.66,3.85a9.79,9.79,0,0,1,1.3,1.08l7.54-3.18Z" style="fill:#37474f"></path></g><g id="freepik--arm--inject-13"><path d="M76.15,182.4c-7.91,2-11,4-13.26,9.8-3,7.5-9.52,25.07-11.64,33.84-1.14,4.72-1.91,6.86,2.34,11.92,3.52,4.2,12.16,11.36,20.07,16.88,1.56,1.08,6.48,4.94,8,5.76,9.05,5,19.65,4,19.65,4l-9.9-6.28-1.72-3.44L69.34,230.64s7.59-20.25,9.6-25.95S82.1,186.12,76.15,182.4Z" style="fill:#ffbda7"></path><path d="M69.34,230.64a10.92,10.92,0,0,0-7-3s3.13-1.43,7.75,1.09Z" style="fill:#f0997a"></path><path d="M82.4,250l-.05.94a2.68,2.68,0,0,0,1.23,2.36L108.29,269a2.57,2.57,0,0,0,1.31.42,2.74,2.74,0,0,0,1.34-.3l47.64-24.82a2.64,2.64,0,0,0,1.43-2.24l0-.65-50.36,26.24Z" style="fill:#3963C0"></path><g style="opacity:0.5"><path d="M82.4,250l-.05.94a2.68,2.68,0,0,0,1.23,2.36L108.29,269a2.57,2.57,0,0,0,1.31.42,2.74,2.74,0,0,0,1.34-.3l47.64-24.82a2.64,2.64,0,0,0,1.43-2.24l0-.65-50.36,26.24Z" style="fill:#fff"></path></g><g style="opacity:0.1"><path d="M82.4,250l-.05.94a2.68,2.68,0,0,0,1.23,2.36L108.29,269a2.57,2.57,0,0,0,1.31.42,2.74,2.74,0,0,0,1.34-.3l47.64-24.82a2.64,2.64,0,0,0,1.43-2.24l0-.65-50.36,26.24Z"></path></g><path d="M160,241.42l-26.87-17.1a1.57,1.57,0,0,0-1.58-.07l-49,25.53a.35.35,0,0,0,0,.61l27.12,17.27Z" style="fill:#3963C0"></path><g style="opacity:0.85"><path d="M160,241.42l-26.87-17.1a1.57,1.57,0,0,0-1.58-.07l-49,25.53a.35.35,0,0,0,0,.61l27.12,17.27Z" style="fill:#fff"></path></g><polygon points="109.96 265.07 95.47 255.86 139.58 232.88 154.15 242.06 109.96 265.07" style="fill:#3963C0"></polygon><g style="opacity:0.6000000000000001"><polygon points="109.96 265.07 95.47 255.86 139.58 232.88 154.15 242.06 109.96 265.07" style="fill:#fff"></polygon></g><polygon points="103.25 241.14 103.52 241.31 110.62 245.84 123.9 238.92 124.18 238.77 116.81 234.08 103.25 241.14" style="fill:#3963C0"></polygon><polygon points="103.52 241.31 110.62 245.84 123.9 238.92 116.8 234.39 103.52 241.31" style="fill:#3963C0"></polygon><g style="opacity:0.6000000000000001"><polygon points="103.52 241.31 110.62 245.84 123.9 238.92 116.8 234.39 103.52 241.31" style="fill:#fff"></polygon></g><path d="M109.68,267.66l-.08,1.77a2.74,2.74,0,0,0,1.34-.3l47.64-24.82a2.64,2.64,0,0,0,1.43-2.24l0-.65Z" style="fill:#3963C0"></path><g style="opacity:0.03"><path d="M109.68,267.66l-.08,1.77a2.74,2.74,0,0,0,1.34-.3l47.64-24.82a2.64,2.64,0,0,0,1.43-2.24l0-.65Z" style="fill:#fff"></path></g><g style="opacity:0.2"><path d="M109.68,267.66l-.08,1.77a2.74,2.74,0,0,0,1.34-.3l47.64-24.82a2.64,2.64,0,0,0,1.43-2.24l0-.65Z"></path></g><path d="M110.41,268.08a3.13,3.13,0,0,0,2.72-.09l47.43-24.71a3.15,3.15,0,0,0,1.63-2.13l6.37-30a3.24,3.24,0,0,0,.07-.52,3.2,3.2,0,0,0-.84-2.28L118.5,234.05a2.36,2.36,0,0,0-1.2,1.57Z" style="fill:#3963C0"></path><g style="opacity:0.4"><path d="M110.41,268.08a3.13,3.13,0,0,0,2.72-.09l47.43-24.71a3.15,3.15,0,0,0,1.63-2.13l6.37-30a3.24,3.24,0,0,0,.07-.52,3.2,3.2,0,0,0-.84-2.28L118.5,234.05a2.36,2.36,0,0,0-1.2,1.57Z" style="fill:#fff"></path></g><path d="M109.68,267.66l.31.19a2.13,2.13,0,0,0,.42.23l6.89-32.46a2.36,2.36,0,0,1,1.2-1.57l49.29-25.69a2.86,2.86,0,0,0-.62-.51l-49.39,25.73a2.36,2.36,0,0,0-1.2,1.58Z" style="fill:#3963C0"></path><g style="opacity:0.6000000000000001"><path d="M109.68,267.66l.31.19a2.13,2.13,0,0,0,.42.23l6.89-32.46a2.36,2.36,0,0,1,1.2-1.57l49.29-25.69a2.86,2.86,0,0,0-.62-.51l-49.39,25.73a2.36,2.36,0,0,0-1.2,1.58Z" style="fill:#fff"></path></g><path d="M117.78,234.64l-.72-.46a2.31,2.31,0,0,0-.48,1l-6.9,32.5.31.19a2.13,2.13,0,0,0,.42.23l6.89-32.46A2.43,2.43,0,0,1,117.78,234.64Z" style="fill:#3963C0"></path><path d="M117.78,234.64l-.72-.46a2.31,2.31,0,0,0-.48,1l-6.9,32.5.31.19a2.13,2.13,0,0,0,.42.23l6.89-32.46A2.43,2.43,0,0,1,117.78,234.64Z" style="fill:#fff;opacity:0.5"></path><path d="M117.78,234.64l-.72-.46a2.31,2.31,0,0,0-.48,1l-6.9,32.5.31.19a2.13,2.13,0,0,0,.42.23l6.89-32.46A2.43,2.43,0,0,1,117.78,234.64Z" style="fill:#3963C0;opacity:0.5"></path><path d="M137.68,241.32c.43-2,2.63-4.6,4.92-5.79S146.41,235,146,237s-2.63,4.6-4.92,5.8S137.25,243.33,137.68,241.32Z" style="fill:#3963C0"></path><path d="M81.54,247.34c2.58,1.9,6.15.49,9.62,1s6.43,1.41,9.22,1.39,4.16.57,2.16,2.77-7.59.79-9.11,1.44a3.25,3.25,0,0,0-.82,5.14c1.6,1.94-9.3-2-10.72-4.27S79.55,247.59,81.54,247.34Z" style="fill:#ffbda7"></path><path d="M76.15,182.4c-5.31.94-7.53,2.09-10.33,4.24s-11.31,20.65-11.31,20.65,4.56,6.72,20.57,9.55c0,0,4.9-12.11,5.91-16S83.52,185.52,76.15,182.4Z" style="fill:#e6e6e6"></path></g></g></g></g></svg>
