<?xml version="1.0" encoding="utf-8"?>
<!-- Generator: Adobe Illustrator 27.5.0, SVG Export Plug-In . SVG Version: 6.00 Build 0)  -->
<svg version="1.1" xmlns="http://www.w3.org/2000/svg" xmlns:xlink="http://www.w3.org/1999/xlink" x="0px" y="0px"
	 viewBox="0 0 3710 3710" style="enable-background:new 0 0 3710 3710;" xml:space="preserve">
<g id="Background">
	<g>
		<g>
			<rect style="fill:#FFFFFF;" width="3710" height="3710"/>
		</g>
	</g>
</g>
<g id="Illustration">
	<g>
		<path style="fill:#F4F7FA;" d="M3202.39,1823.742c47.771,247.487,144.593,749.082-87.106,1084.635
			c-420.508,608.996-1850.613,566.081-2454.681-201.736c-52.225-66.382-314.206-412.647-285.622-886.797
			C424.563,997.418,1319.51,268.46,2036.746,411.633c419.764,83.792,698.757,450.358,813.615,601.27
			C2897.696,1075.096,3114.479,1368.299,3202.39,1823.742z"/>
		<g>
			<g>
				<defs>
					<path id="SVGID_1_" d="M1375.51,2803.848c137.139-90.029,323.973-242.507,438.642-484.185
						c150.385-316.957,44.518-508.855,158.141-1070.071c71.842-354.851,125.554-601.77,328.508-703.447
						c159.045-79.678,390.698-60.621,512.236,60.154c101.055,100.422,137.815,282.924,136.848,408.448
						c-0.788,102.302-26.678,172.164,21.492,234.531c49.229,63.737,117.738,44.467,165.583,93.661
						c97.031,99.764-13.729,354.829-31.63,396.053c-199.128,458.563-696.566,704.48-914.843,809.136
						C2010.011,2634.661,1735.103,2743.968,1375.51,2803.848z"/>
				</defs>
				
					<linearGradient id="SVGID_00000113345934584989767760000001269994576601397666_" gradientUnits="userSpaceOnUse" x1="1606.1411" y1="1069.911" x2="2000.6831" y2="1581.5154">
					<stop  offset="0" style="stop-color:#AA80F9"/>
					<stop  offset="0.9964" style="stop-color:#6165D7"/>
				</linearGradient>
				
					<use xlink:href="#SVGID_1_"  style="overflow:visible;opacity:0.74;fill:url(#SVGID_00000113345934584989767760000001269994576601397666_);"/>
				<clipPath id="SVGID_00000095300717560129233680000002078192338702805396_">
					<use xlink:href="#SVGID_1_"  style="overflow:visible;opacity:0.74;"/>
				</clipPath>
				<g style="opacity:0.5;clip-path:url(#SVGID_00000095300717560129233680000002078192338702805396_);">
					<path style="fill:#FFFFFF;" d="M1225.139,2867.422l-1.351-7c218.342-42.086,410.712-104.128,571.77-184.402
						c237.618-118.431,399.761-273.595,481.926-461.184c64.342-146.893,78.743-308.058,98.671-531.119
						c15.912-178.048,11.125-305.656,6.906-418.243c-5.507-146.952-9.858-263.023,35.067-422.408
						c45.604-161.773,128.479-316.044,246.327-458.527l5.493,4.543C2552.737,530.794,2470.322,684.186,2424.993,845
						c-44.626,158.304-40.292,273.881-34.81,420.207c4.229,112.797,9.023,240.646-6.927,419.143
						c-19.239,215.317-34.434,385.386-99.242,533.347c-82.854,189.157-246.122,345.507-485.276,464.704
						C1637.1,2762.961,1444.114,2825.213,1225.139,2867.422z"/>
					<path style="fill:#FFFFFF;" d="M2389.803,1556.713l-3.363-2.219c-1.072-0.71-108.557-72.639-204.11-212.818
						c-56.124-82.328-97.258-171.779-122.265-265.864c-31.256-117.592-37.257-242.776-17.84-372.075l7.052,1.058
						c-19.264,128.26-13.332,252.41,17.628,369c24.771,93.278,65.529,181.971,121.145,263.617
						c85.36,125.309,180.237,195.608,199.007,208.84c151.112-301.328,356.406-470.842,502.3-560.082
						c158.819-97.145,283.633-122.796,284.875-123.043l1.392,6.99c-1.232,0.247-125.047,25.735-282.839,122.313
						c-145.595,89.114-350.732,258.724-501.186,560.679L2389.803,1556.713z"/>
					<path style="fill:#FFFFFF;" d="M2334.703,2036.849l-1.072-2.358c-0.856-1.881-86.979-190.238-210.292-362.173
						c-122.857-171.302-460.826-282.275-464.225-283.377l2.196-6.781c3.422,1.107,343.617,112.818,467.821,286.001
						c116.223,162.046,199.501,338.602,209.899,361.014c199.696-24.309,440.21-250.104,607.126-435.69
						c181.915-202.263,317.997-401.679,319.351-403.668l5.897,4.007c-1.358,1.995-137.711,201.811-319.946,404.429
						c-107.082,119.059-208.841,215.802-302.444,287.538c-117.312,89.901-222.194,140.628-311.738,150.768L2334.703,2036.849z"/>
					<path style="fill:#FFFFFF;" d="M1924.489,2650.554c-32.161,0-50.279-0.924-50.839-0.954l-7.091-0.385l4.546-5.458
						c66.775-80.083,101.832-169.861,104.199-266.84c1.897-77.7-17.046-160.236-56.312-245.311
						c-67.009-145.189-171.363-248.699-172.411-249.728l4.999-5.086c1.053,1.037,106.227,105.327,173.803,251.651
						c39.763,86.096,58.957,169.718,57.05,248.543c-2.329,96.426-36.404,185.814-101.282,265.784
						c35.36,1.218,198.85,4.355,412.206-30.7c221.797-36.442,544.392-122.793,821.668-327.214l537.987-396.626l4.233,5.737
						l-537.987,396.626c-278.477,205.305-602.308,291.981-824.929,328.542C2129.375,2646.224,1994.084,2650.554,1924.489,2650.554z"
						/>
				</g>
			</g>
		</g>
		<g>
			<g>
				<defs>
					<path id="SVGID_00000103233261185366113600000012662623171508220559_" d="M1887.689,3066.715
						c210.253,43.109,483.499,63.876,760.649-17.812c70.729-20.847,507.661-149.629,491.757-369.154
						c-5.603-77.328-62.662-100.61-71.74-203.849c-10.756-122.33,62.471-167.942,129.206-304.606
						c39.821-81.546,156.356-320.193,44.072-487.174c-67.098-99.783-212.872-169.462-333.101-161.526
						c-176.351,11.639-263.19,187.978-405.59,489.239c-126.232,267.057-115.455,340.842-209.302,531.342
						C2223.99,2684.556,2104.435,2874.549,1887.689,3066.715z"/>
				</defs>
				
					<linearGradient id="SVGID_00000034786841083672183670000011498382028909189006_" gradientUnits="userSpaceOnUse" x1="3715.4963" y1="1892.655" x2="2530.417" y2="2387.9666">
					<stop  offset="0" style="stop-color:#FF9085"/>
					<stop  offset="1" style="stop-color:#FB6FBB"/>
				</linearGradient>
				
					<use xlink:href="#SVGID_00000103233261185366113600000012662623171508220559_"  style="overflow:visible;fill:url(#SVGID_00000034786841083672183670000011498382028909189006_);"/>
				<clipPath id="SVGID_00000106841347654375986970000001167686074879790495_">
					<use xlink:href="#SVGID_00000103233261185366113600000012662623171508220559_"  style="overflow:visible;"/>
				</clipPath>
				<g style="opacity:0.5;clip-path:url(#SVGID_00000106841347654375986970000001167686074879790495_);">
					<path style="fill:#FFFFFF;" d="M1560.357,3112.995c-195.101,0-391.633-51.273-585.397-152.875l3.31-6.314
						c219.906,115.31,443.313,165.454,664.055,149.015c294.079-21.895,568.226-166.155,814.828-428.775
						c256.853-273.532,419.467-606.912,510.654-838.415c63.211-160.476,84.215-347.788,62.428-556.737l7.091-0.738
						c21.909,210.095,0.752,398.537-62.884,560.089c-91.417,232.083-254.469,566.325-512.092,840.681
						c-247.862,263.961-523.582,408.972-819.496,431.003C1615.393,3111.973,1587.888,3112.995,1560.357,3112.995z"/>
					<path style="fill:#FFFFFF;" d="M2751.243,2287.563l-1.56-3.188c-0.467-0.945-46.697-96.179-74.917-233.281
						c-26.062-126.611-41.695-315.927,31.84-498.813l6.614,2.659c-72.843,181.17-57.342,368.92-31.513,494.52
						c25.139,122.234,64.656,210.919,72.857,228.565c497.722-242.848,550.824-622.665,555.242-733.486
						c0.129-3.164,0.185-4.478,0.306-5.244l7.039,1.126c-0.063,0.44-0.139,2.365-0.219,4.402
						c-4.466,112.059-58.23,496.685-562.493,741.191L2751.243,2287.563z"/>
					<path style="fill:#FFFFFF;" d="M2792.763,2740.447c-103.273,0-214.232-21.923-329.981-65.209l-1.765-0.66l-0.449-1.833
						c-0.773-3.157-76.216-320.393,10.857-714.46l87.905-397.815l6.962,1.539l-87.905,397.815
						c-83.289,376.943-17.346,683-11.317,709.403c147.158,54.761,364.346,101.994,566.844,18.195
						c121.371-50.227,180.46-124.718,181.045-125.465l5.618,4.386c-0.592,0.762-60.851,76.728-183.938,127.666
						c-72.209,29.882-151.652,45.493-236.124,46.394C2797.94,2740.433,2795.346,2740.447,2792.763,2740.447z"/>
				</g>
			</g>
		</g>
		<g>
			
				<linearGradient id="SVGID_00000090977642099213775150000014762632877162188161_" gradientUnits="userSpaceOnUse" x1="699.0148" y1="1831.7869" x2="2240.0984" y2="1831.7869">
				<stop  offset="0" style="stop-color:#444B8C"/>
				<stop  offset="0.9964" style="stop-color:#26264F"/>
			</linearGradient>
			<path style="fill:url(#SVGID_00000090977642099213775150000014762632877162188161_);" d="M2172.331,561.072L758.533,443.595
				c-32.838-1.29-59.518,24.544-59.518,57.706v2662.349c0,33.162,26.68,58.345,59.518,56.253l1428.416-90.991
				c29.382-1.871,53.15-28.734,53.15-60.005V558.431C2240.098,527.16,2201.713,562.226,2172.331,561.072z"/>
			
				<linearGradient id="SVGID_00000067234725347574369880000001479881882874441614_" gradientUnits="userSpaceOnUse" x1="1846.8975" y1="482.0377" x2="1950.5883" y2="482.0377">
				<stop  offset="0" style="stop-color:#AB316D"/>
				<stop  offset="1" style="stop-color:#792D3D"/>
			</linearGradient>
			<path style="fill:url(#SVGID_00000067234725347574369880000001479881882874441614_);" d="M1846.897,493.97L1846.897,493.97
				c0-18.502,14.736-33.404,32.693-33.063l12.258-0.621l58.74,22.729v20.775L1846.897,493.97z"/>
			<g>
				<path style="fill:#D8DEE8;" d="M2225.068,499.723L796.652,443.595c-32.838-1.29-59.518,24.544-59.518,57.706v2662.349
					c0,33.162,26.68,58.345,59.518,56.253l1428.416-90.991c29.382-1.871,53.15-28.734,53.15-60.005V558.431
					C2278.217,527.16,2254.449,500.877,2225.068,499.723z"/>
				<g style="opacity:0.3;">
					<path style="fill:#D8DEE8;" d="M1640.849,2456.314c-24.272-303.343,157.71-428.797,88.343-703.491
						c-85.795-339.744-416.286-354.693-529.026-688.557c-43.222-127.995-60.302-321.4,63.402-602.325l-466.916-18.347
						c-32.838-1.29-59.518,24.544-59.518,57.706v2662.349c0,33.162,26.68,58.345,59.518,56.253l1274.406-81.18
						C1747.98,2884.001,1655.764,2642.736,1640.849,2456.314z"/>
				</g>
				
					<linearGradient id="SVGID_00000103967491654091999720000003491852711300551066_" gradientUnits="userSpaceOnUse" x1="2223.4502" y1="618.7164" x2="1150.76" y2="2374.0251">
					<stop  offset="0" style="stop-color:#FFFFFF"/>
					<stop  offset="0.9964" style="stop-color:#EBEFF2"/>
				</linearGradient>
				<path style="fill:url(#SVGID_00000103967491654091999720000003491852711300551066_);" d="M2225.068,533.151L796.652,478.894
					c-13.459-0.511-24.419,10.124-24.419,23.708v2658.892c0,13.584,10.96,23.951,24.419,23.111l1428.416-89.12
					c12.06-0.753,21.862-11.811,21.862-24.653V557.27C2246.93,544.429,2237.128,533.609,2225.068,533.151z"/>
				<path style="fill:#D8DEE8;" d="M1530.298,1707.857c-267.435,2.092-489.066-223.701-489.066-503.367
					c0-279.666,221.631-500.508,489.066-492.443c262.089,7.904,471.479,233.561,471.479,503.171
					S1792.387,1705.807,1530.298,1707.857z"/>
				<path style="fill:#FFFFFF;" d="M1969.807,1214.86c0,251.73-194.94,457.066-439.509,458.659
					c-249.218,1.623-454.753-208.185-454.753-468.646s205.535-465.678,454.753-458.489
					C1774.867,753.439,1969.807,963.13,1969.807,1214.86z"/>
				
					<linearGradient id="SVGID_00000017493181114313832410000006553024732305248429_" gradientUnits="userSpaceOnUse" x1="916.9693" y1="1949.925" x2="2116.219" y2="1949.925">
					<stop  offset="0" style="stop-color:#AA80F9"/>
					<stop  offset="0.9964" style="stop-color:#6165D7"/>
				</linearGradient>
				<path style="opacity:0.74;fill:url(#SVGID_00000017493181114313832410000006553024732305248429_);" d="M2065.483,1885.666
					L972.34,1901.959c-30.553,0.455-55.37,25.998-55.37,57.052l0,0c0,31.052,24.817,55.752,55.37,55.169l1093.143-20.875
					c28.046-0.535,50.736-25.018,50.736-54.682l0,0C2116.219,1908.958,2093.529,1885.247,2065.483,1885.666z"/>
				<path style="fill:#D8DEE8;" d="M2065.483,2097.582l-895.49,20.735c-30.102,0.697-54.555,26.25-54.555,57.074l0,0
					c0,30.823,24.453,55.142,54.555,54.319l895.49-24.488c28.046-0.767,50.736-25.436,50.736-55.101l0,0
					C2116.219,2120.455,2093.529,2096.932,2065.483,2097.582z"/>
				<g>
					<path style="fill:#B19AF3;" d="M972.845,2235.1l-1.012,0.028c-30.273,0.828-54.865-22.57-54.865-52.26v-4.931
						c0-29.691,24.592-54.33,54.865-55.031l1.012-0.023c30.203-0.7,54.636,22.705,54.636,52.274v4.91
						C1027.482,2209.636,1003.048,2234.274,972.845,2235.1z"/>
					<path style="fill:#D8DEE8;" d="M972.339,2245.635c-36.23,1.005-65.778-28.139-65.778-64.97
						c0-36.831,29.548-67.467,65.778-68.292c36.132-0.823,65.456,28.328,65.456,64.978
						C1037.796,2214.001,1008.471,2244.633,972.339,2245.635z M972.339,2133.414c-24.779,0.583-44.971,21.545-44.971,46.725
						c0,25.179,20.192,45.122,44.971,44.454c24.733-0.666,44.821-21.626,44.821-46.721
						C1017.16,2152.777,997.073,2132.832,972.339,2133.414z"/>
				</g>
				<path style="fill:#D8DEE8;" d="M2065.483,2289.315l-895.49,27.419c-30.102,0.922-54.555,26.657-54.555,57.481l0,0
					c0,30.823,24.453,54.959,54.555,53.912l895.49-31.172c28.046-0.976,50.736-25.815,50.736-55.48l0,0
					C2116.219,2311.81,2093.529,2288.456,2065.483,2289.315z"/>
				<g>
					<path style="fill:#B19AF3;" d="M972.845,2434.99l-1.012,0.035c-30.273,1.054-54.865-22.16-54.865-51.851v-4.931
						c0-29.691,24.592-54.514,54.865-55.441l1.012-0.031c30.203-0.925,54.636,22.297,54.636,51.867v4.91
						C1027.482,2409.117,1003.048,2433.938,972.845,2434.99z"/>
					<path style="fill:#D8DEE8;" d="M972.339,2445.528c-36.23,1.275-65.778-27.648-65.778-64.479
						c0-36.83,29.548-67.688,65.778-68.783c36.132-1.093,65.456,27.839,65.456,64.49S1008.471,2444.256,972.339,2445.528z
						 M972.339,2333.307c-24.779,0.768-44.971,21.881-44.971,47.061s20.192,44.971,44.971,44.118
						c24.733-0.851,44.821-21.96,44.821-47.056S997.073,2332.54,972.339,2333.307z"/>
				</g>
				<path style="fill:#D8DEE8;" d="M2065.483,2481.049l-895.49,34.103c-30.102,1.146-54.555,27.064-54.555,57.888l0,0
					c0,30.823,24.453,54.777,54.555,53.505l895.49-37.856c28.046-1.186,50.736-26.194,50.736-55.859l0,0
					C2116.219,2503.165,2093.529,2479.981,2065.483,2481.049z"/>
				<path style="fill:#D8DEE8;" d="M972.339,2645.421c-36.23,1.545-65.778-27.158-65.778-63.988
					c0-36.83,29.548-67.908,65.778-69.274c36.132-1.362,65.456,27.351,65.456,64.001
					C1037.796,2612.81,1008.471,2643.879,972.339,2645.421z M972.339,2533.2c-24.779,0.953-44.971,22.217-44.971,47.396
					c0,25.179,20.192,44.821,44.971,43.783c24.733-1.036,44.821-22.295,44.821-47.39
					C1017.16,2551.894,997.073,2532.249,972.339,2533.2z"/>
				<path style="fill:#D8DEE8;" d="M2065.483,2672.782l-895.49,40.787c-30.102,1.372-54.555,27.473-54.555,58.296l0,0
					c0,30.823,24.453,54.594,54.555,53.097l895.49-44.54c28.046-1.395,50.736-26.572,50.736-56.237l0,0
					C2116.219,2694.521,2093.529,2671.505,2065.483,2672.782z"/>
				<g>
					<path style="fill:#B19AF3;" d="M972.845,2834.768l-1.012,0.051c-30.273,1.506-54.865-21.341-54.865-51.032v-4.931
						c0-29.691,24.592-54.881,54.865-56.259l1.012-0.046c30.203-1.376,54.636,21.482,54.636,51.051v4.911
						C1027.482,2808.08,1003.048,2833.265,972.845,2834.768z"/>
					<path style="fill:#D8DEE8;" d="M972.339,2845.314c-36.23,1.816-65.778-26.667-65.778-63.497
						c0-36.831,29.548-68.129,65.778-69.765c36.132-1.631,65.456,26.862,65.456,63.513
						C1037.796,2812.215,1008.471,2843.502,972.339,2845.314z M972.339,2733.093c-24.779,1.138-44.971,22.553-44.971,47.732
						c0,25.179,20.192,44.67,44.971,43.447c24.733-1.22,44.821-22.63,44.821-47.725
						C1017.16,2751.452,997.073,2731.957,972.339,2733.093z"/>
				</g>
				<g>
					<defs>
						<path id="SVGID_00000143610927084444241990000017183500695665692604_" d="M1937.756,1214.502
							c0,233.373-180.849,423.5-407.458,424.678c-230.595,1.199-420.527-193.067-420.527-433.925
							c0-240.858,189.932-430.882,420.527-424.533C1756.908,786.963,1937.756,981.129,1937.756,1214.502z"/>
					</defs>
					<clipPath id="SVGID_00000075160752286782912290000000255081178209557653_">
						<use xlink:href="#SVGID_00000143610927084444241990000017183500695665692604_"  style="overflow:visible;"/>
					</clipPath>
					<g style="clip-path:url(#SVGID_00000075160752286782912290000000255081178209557653_);">
						<g>
							
								<linearGradient id="SVGID_00000073708718179151325870000015527545568723140793_" gradientUnits="userSpaceOnUse" x1="1870.6539" y1="848.2137" x2="1738.3585" y2="1200.1201">
								<stop  offset="0" style="stop-color:#AB316D"/>
								<stop  offset="1" style="stop-color:#792D3D"/>
							</linearGradient>
							<path style="fill:url(#SVGID_00000073708718179151325870000015527545568723140793_);" d="M1624.163,919.698
								c3.7-24.912,54.441-43.024,97.43-39.58c117.627,9.421,242.064,185.321,211.436,300.883
								c-26.836,101.252-162.207,117.451-158.253,198.438c3.006,61.56,83.401,92.962,73.715,113.132
								c-10.174,21.188-112.188,14.22-166.928-51.842c-51.686-62.378-39.773-151.491-35.719-181.812
								c17.006-127.203,97.747-166.462,75.75-233.652C1701.427,963.669,1619.274,952.62,1624.163,919.698z"/>
						</g>
						
							<linearGradient id="SVGID_00000119084767814658746480000003991690798535365785_" gradientUnits="userSpaceOnUse" x1="1586.5425" y1="1228.3" x2="1494.2981" y2="1653.6498">
							<stop  offset="0" style="stop-color:#AA80F9"/>
							<stop  offset="0.9964" style="stop-color:#6165D7"/>
						</linearGradient>
						<path style="fill:url(#SVGID_00000119084767814658746480000003991690798535365785_);" d="M1075.546,1523.136
							c0,0,399.48-241.179,894.261-0.682c0,0-63.08,206.505-439.509,220.1C1142.743,1756.551,1075.546,1523.136,1075.546,1523.136z"
							/>
						
							<linearGradient id="SVGID_00000078758949495923156770000006113776137486199171_" gradientUnits="userSpaceOnUse" x1="1517.8224" y1="1248.3765" x2="1519.5782" y2="1589.0585">
							<stop  offset="0.0036" style="stop-color:#F36F56"/>
							<stop  offset="1" style="stop-color:#FFC444"/>
						</linearGradient>
						<path style="fill:url(#SVGID_00000078758949495923156770000006113776137486199171_);" d="M1459.441,1209.16l-14.982,115.17
							c-5.112,39.297-31.319,72.159-67.771,84.897l-121.784,42.558c0,0,233.141,116.006,527.932-0.093l-134.436-48.364
							c-38.148-14.821-64.143-52.109-65.804-94.492l-3.853-98.344L1459.441,1209.16z"/>
						
							<linearGradient id="SVGID_00000183947415289391444980000016155447187152996226_" gradientUnits="userSpaceOnUse" x1="1814.0188" y1="493.793" x2="1192.0685" y2="1671.6473">
							<stop  offset="0" style="stop-color:#AB316D"/>
							<stop  offset="1" style="stop-color:#792D3D"/>
						</linearGradient>
						<path style="fill:url(#SVGID_00000183947415289391444980000016155447187152996226_);" d="M1475.172,1287.119
							c-61.255-16.972-94.078-68.734-113.54-99.426c-32.622-51.444-77.641-157.92-35.263-218.434
							c18.81-26.859,34.191-15.069,147.14-65.855c66.382-29.847,74.865-40.162,99.387-37.158
							c69.306,8.489,109.593,104.268,115.005,117.138c7.119,16.922,47.908,113.899-3.272,204.752
							C1643.597,1260.979,1555.158,1309.28,1475.172,1287.119z"/>
						
							<linearGradient id="SVGID_00000091001307845794115100000005318521681272590981_" gradientUnits="userSpaceOnUse" x1="1566.3102" y1="753.6866" x2="1487.4214" y2="1285.3258">
							<stop  offset="0.0036" style="stop-color:#F36F56"/>
							<stop  offset="1" style="stop-color:#FFC444"/>
						</linearGradient>
						<path style="fill:url(#SVGID_00000091001307845794115100000005318521681272590981_);" d="M1641.272,1109.504
							c0,97.254-56.714,201.322-127.016,200.807c-70.681-0.519-128.258-106.447-128.258-204.652
							c0-98.205,57.577-150.721,128.258-149.249C1584.558,957.873,1641.272,1012.249,1641.272,1109.504z"/>
						
							<linearGradient id="SVGID_00000109001919566265134310000016514660160242975913_" gradientUnits="userSpaceOnUse" x1="1755.4216" y1="666.9435" x2="1309.5634" y2="1511.3134">
							<stop  offset="0" style="stop-color:#AB316D"/>
							<stop  offset="1" style="stop-color:#792D3D"/>
						</linearGradient>
						<path style="fill:url(#SVGID_00000109001919566265134310000016514660160242975913_);" d="M1381.74,1168.941
							c12.184-0.532-5.403-102.732,41.793-130.487c31.337-18.429,85.727-0.722,116.318,32.944
							c48.226,53.071,21.242,128.319,57.775,144.801c23.194,10.464,54.159-10.875,68.995-26.572
							c46.336-49.025,40.02-153.938-14.754-213.796c-43.656-47.707-102.893-50.266-116.979-50.427
							c-80.615-0.921-154.616,59.966-171.578,132.722C1350.274,1114.035,1372.73,1169.334,1381.74,1168.941z"/>
						
							<linearGradient id="SVGID_00000087389531801198318800000006054828203723939506_" gradientUnits="userSpaceOnUse" x1="1709.9584" y1="248.0027" x2="1616.3394" y2="497.0296">
							<stop  offset="0" style="stop-color:#AB316D"/>
							<stop  offset="1" style="stop-color:#792D3D"/>
						</linearGradient>
						<path style="fill:url(#SVGID_00000087389531801198318800000006054828203723939506_);" d="M1479.956,301.72
							c7.648-18.253,29.415-21.733,45.422-10.842c18.375,12.501,25.24,35.86,28.467,56.738c5.433,35.149,6.25,70.156,22.527,102.875
							c26.538,53.343,85.657,74.665,138.998,69.447c55.272-5.406,106.117-36.692,138.277-82.386
							c25.64-36.43,54.94-119.37-6.941-141.644c-30.237-10.884-51.111,16.989-61.966,42.11c-6.51,15.064-10.614,31.12-12.299,47.756
							c-2.318,22.894,0.013,56.267-26.554,63.428c-6.016,1.622-3.454,11.59,2.598,9.956c21.947-5.925,29.886-27.668,31.999-49.558
							c3.257-33.738,6.408-74.235,32.802-97.358c16.5-14.455,38.006-8.38,50.925,9.407c12.064,16.61,11.869,38.098,7.016,56.847
							c-7.728,29.855-25.621,57.059-46.672,78.027c-40.888,40.726-101.422,63.644-159.482,50.184
							c-30.748-7.128-59.337-24.712-76.137-53.632c-18.126-31.203-20.06-66.346-24.617-101.054
							c-3.601-27.434-12.52-58.701-38.659-72.622c-19.79-10.539-45.456-4.424-54.317,16.716
							C1468.856,302.046,1477.448,307.705,1479.956,301.72L1479.956,301.72z"/>
						
							<linearGradient id="SVGID_00000080901010237226546620000018423317915375505847_" gradientUnits="userSpaceOnUse" x1="2485.1487" y1="474.487" x2="2374.0886" y2="769.9073">
							<stop  offset="0" style="stop-color:#AB316D"/>
							<stop  offset="1" style="stop-color:#792D3D"/>
						</linearGradient>
						<path style="fill:url(#SVGID_00000080901010237226546620000018423317915375505847_);" d="M2619.923,556.258
							c-2.35-5.896-10.218-1.173-7.881,4.688c37.217,93.373-16.45,270.637-131.986,238.569
							c-47.607-13.214-66.047-67.141-75.153-113.539c-10.195-51.947-13.89-106.12-18.683-158.775
							c-3.203-35.187-8.385-79.382-38.449-101.827c-24.516-18.302-53.971-13.379-70.872,11.212
							c-3.51,5.107,4.618,10.449,8.093,5.388c12.25-17.833,32.609-22.851,51.743-12.324c19.442,10.697,29.018,33.524,34.147,54.917
							c8.105,33.804,9.14,70.445,12.579,105.024c4.98,50.077,8.235,102.43,26.769,149.686c17.023,43.403,49.219,72.92,93.783,73.309
							c52.853,0.462,88.938-35.995,108.837-85.661C2633.243,676.028,2641.229,609.731,2619.923,556.258z"/>
						
							<linearGradient id="SVGID_00000081636707466880044630000017614485793063608976_" gradientUnits="userSpaceOnUse" x1="2646.9314" y1="1053.5414" x2="2524.6235" y2="1378.8813">
							<stop  offset="0" style="stop-color:#AB316D"/>
							<stop  offset="1" style="stop-color:#792D3D"/>
						</linearGradient>
						<path style="fill:url(#SVGID_00000081636707466880044630000017614485793063608976_);" d="M2755.856,1125.692
							c-16.391-33.457-58.081-71.081-93.022-44.505c-42.182,32.084-19.878,96.739-19.151,142.304
							c0.322,20.234-1.613,47.668-14.88,63.306c-18.248,21.51-50.554-4.805-55.218-27.418
							c-9.662-46.838,30.456-89.055,43.946-129.739c0.607-1.833-2.12-3.127-2.933-1.382
							c-16.304,35.002-41.215,67.582-48.784,106.864c-6.229,32.325,13.276,72.066,48.479,68.725
							c31.341-2.975,35.858-49.936,35.516-76.142c-0.339-25.88-6.675-51.273-7.503-77.143
							c-0.982-30.624,12.728-78.286,49.708-65.304c42.856,15.043,58.396,72.566,56.026,116.013
							c-2.377,43.589-20.043,86.803-46.071,119.69c-27.353,34.56-64.998,58.547-108.544,54.625
							c-45.349-4.083-70.225-46.623-83.316-89.459c-11.645-38.111-34.615-190.359-95.604-125.766
							c-1.431,1.517,0.783,3.923,2.22,2.413c13.344-14.02,30.794-23.134,45.088-4.762c10.753,13.822,14.902,34.932,18.681,51.986
							c8.304,37.464,8.865,75.888,22.311,112.105c15.14,40.781,43.816,72.209,85.175,78.304
							c41.796,6.159,81.808-11.421,112.641-40.741C2757.421,1305.655,2793.905,1203.356,2755.856,1125.692z"/>
						
							<linearGradient id="SVGID_00000020396916332932689960000006102899812491113348_" gradientUnits="userSpaceOnUse" x1="2834.1333" y1="1248.8593" x2="2616.1172" y2="1828.7837">
							<stop  offset="0" style="stop-color:#AB316D"/>
							<stop  offset="1" style="stop-color:#792D3D"/>
						</linearGradient>
						<path style="fill:url(#SVGID_00000020396916332932689960000006102899812491113348_);" d="M2917.559,1285.748
							c-31.325,4.266-39.425,42.978-41.989,71.779c-3.057,34.346-0.507,70.203,3.09,104.44c0.468,4.451,1.002,9.067,1.555,13.793
							c-17.546,8.347-36.756,12.886-55.937,12.967c-24.339,0.103-46.6-8.689-69.417-17.226
							c-22.745-8.51-47.048-17.163-71.514-14.216c-22.026,2.653-42.494,15.53-59.689,30.138
							c-31.97,27.159-73.589,82.811-46.352,128.498c11.03,18.503,32.274,24.277,50.852,16.071
							c20.265-8.953,32.798-31.296,48.015-47.147c1.72-1.791-0.531-5.084-2.58-3.618c-16.583,11.865-29.066,32.031-48.392,39.169
							c-26.75,9.879-44.476-14.848-42.193-42.011c2.244-26.701,20.69-50.928,38.084-68.425
							c18.266-18.373,42.22-36.043,67.856-37.057c12.704-0.503,24.962,1.769,37.016,5.348
							c-18.277,26.485-17.355,67.859-25.333,98.458c-10.415,39.937-27.854,74.89-53.229,105.992
							c-17.483,21.428-36.668,41.602-57.63,59.165c-19.01,15.929-42.736,33.934-67.603,35.599
							c-35.886,2.403-40.15-38.484-47.209-66.751c-1.185-4.744-7.599-3.544-7.793,1.198c-1.053,25.794,8.773,61.549,32.431,72.9
							c20.9,10.028,45.012-0.305,63.637-11.632c25.743-15.655,48.536-37.167,69.202-59.662c22.254-24.224,43.152-50.581,57-81.392
							c11.195-24.905,18.966-52.047,23.384-79.264c3.94-24.277,2.683-52.787,16.092-73.707c12.671,3.988,25.139,9.295,37.681,14.254
							c-16.299,62.461-35.757,122.496-62.9,180.642c-19.887,42.599-40.05,89.051-77.514,116.511
							c-2.445-3.705-9.173-1.807-9.165,3.497c0.005,3.724,0.427,5.202,1.953,8.506c1.058,2.292,4.083,3.49,6.314,2.705
							c19.682-6.927,34.643-27.295,46.169-44.88c15.412-23.514,27.249-49.574,38.807-75.386
							c12.042-26.888,23.952-53.473,33.02-81.706c11.391-35.467,18.746-71.99,28.089-108.025
							c16.605,6.397,33.402,11.788,51.037,12.26c20.536,0.549,41.031-3.495,60.122-11.458c4.796,45.371,6.246,96.33-29.042,125.096
							c-14.977,12.208-30.508,13.74-44.25,8.489c6.868-25.562,13.84-51.076,21.49-76.336c1.496-4.939-5.543-6.964-7.099-2.121
							c-7.901,24.594-15.645,49.259-23.192,74.014c-6.288-3.951-12.015-9.314-16.912-15.662
							c11.079-28.304,20.826-57.158,28.229-86.981c0.896-3.608-3.958-4.971-5.078-1.523c-8.65,26.636-18.609,53.062-29.438,79.063
							c-6.262-11.034-10.23-23.867-10.883-36.825c-0.367-7.278-9.813-7.168-10.338,0.025c-1.479,20.243,3.086,40.27,12.969,56.144
							c-6.236,14.275-12.689,28.415-19.357,42.339c-18.952,39.571-43.606,78.18-56.105,121.023
							c-1.876,6.43,7.372,10.76,10.142,4.527c23.571-53.04,49.883-105,72.11-158.611c5.33,6.163,11.654,11.366,18.969,15.221
							c-2.982,9.961-5.929,19.938-8.823,29.937c-11.816,40.805-26.601,82.04-34.889,123.919c-0.969,4.891,5.646,8.563,7.842,3.503
							c16.573-38.202,25.813-81.02,36.807-121.29c2.915-10.678,5.784-21.371,8.647-32.064c1.107,0.369,2.181,0.789,3.323,1.103
							c37.861,10.388,72.05-18.954,85.621-56.064c12.271-33.556,9.506-69.477,5.589-104.914
							c9.442-5.314,18.411-11.612,26.682-18.874c28.653-25.163,47.508-61.497,50.949-101.669
							C2979.675,1330.374,2958.255,1280.205,2917.559,1285.748z M2957.535,1370.281c-4.653,41.413-29.025,75.52-61.078,96.377
							c-0.825-7.583-1.573-15.118-2.103-22.571c-2.511-35.299-6.174-73.547,2.029-108.142c4.121-17.378,14.088-36.35,33.529-29.673
							C2954.375,1314.677,2960.227,1346.318,2957.535,1370.281z"/>
					</g>
				</g>
				<path style="opacity:0.35;fill:#FFFFFF;" d="M1640.849,2456.314c-24.272-303.343,157.71-428.797,88.343-703.491
					c-85.795-339.744-416.286-354.693-529.026-688.557c-41.438-122.714-58.85-305.567,48.879-568.189l-452.393-17.184
					c-13.459-0.511-24.419,10.124-24.419,23.708v2658.892c0,13.584,10.96,23.951,24.419,23.111l1235.875-77.107
					C1740.506,2864.173,1655.147,2635.019,1640.849,2456.314z"/>
			</g>
			<g>
				<path style="fill:#D8DEE8;" d="M2225.068,499.723L796.652,443.595c-32.838-1.29-59.518,24.544-59.518,57.706v2662.349
					c0,33.162,26.68,58.345,59.518,56.253l1428.416-90.991c29.382-1.871,53.15-28.734,53.15-60.005V558.431
					C2278.217,527.16,2254.449,500.877,2225.068,499.723z"/>
				<g style="opacity:0.3;">
					<path style="fill:#D8DEE8;" d="M1640.849,2456.314c-24.272-303.343,157.71-428.797,88.343-703.491
						c-85.795-339.744-416.286-354.693-529.026-688.557c-43.222-127.995-60.302-321.4,63.402-602.325l-466.916-18.347
						c-32.838-1.29-59.518,24.544-59.518,57.706v2662.349c0,33.162,26.68,58.345,59.518,56.253l1274.406-81.18
						C1747.98,2884.001,1655.764,2642.736,1640.849,2456.314z"/>
				</g>
				
					<linearGradient id="SVGID_00000036217075762446693690000013118200379684338598_" gradientUnits="userSpaceOnUse" x1="2223.4502" y1="618.7164" x2="1150.76" y2="2374.0251">
					<stop  offset="0" style="stop-color:#FFFFFF"/>
					<stop  offset="0.9964" style="stop-color:#EBEFF2"/>
				</linearGradient>
				<path style="fill:url(#SVGID_00000036217075762446693690000013118200379684338598_);" d="M2225.068,533.151L796.652,478.894
					c-13.459-0.511-24.419,10.124-24.419,23.708v2658.892c0,13.584,10.96,23.951,24.419,23.111l1428.416-89.12
					c12.06-0.753,21.862-11.811,21.862-24.653V557.27C2246.93,544.429,2237.128,533.609,2225.068,533.151z"/>
				<path style="fill:#D8DEE8;" d="M1530.298,1707.857c-267.435,2.092-489.066-223.701-489.066-503.367
					c0-279.666,221.631-500.508,489.066-492.443c262.089,7.904,471.479,233.561,471.479,503.171
					S1792.387,1705.807,1530.298,1707.857z"/>
				<path style="fill:#FFFFFF;" d="M1969.807,1214.86c0,251.73-194.94,457.066-439.509,458.659
					c-249.218,1.623-454.753-208.185-454.753-468.646s205.535-465.678,454.753-458.489
					C1774.867,753.439,1969.807,963.13,1969.807,1214.86z"/>
				
					<linearGradient id="SVGID_00000110428762781038405010000009014214994180595900_" gradientUnits="userSpaceOnUse" x1="916.9693" y1="1949.925" x2="2116.219" y2="1949.925">
					<stop  offset="0" style="stop-color:#AA80F9"/>
					<stop  offset="0.9964" style="stop-color:#6165D7"/>
				</linearGradient>
				<path style="opacity:0.74;fill:url(#SVGID_00000110428762781038405010000009014214994180595900_);" d="M2065.483,1885.666
					L972.34,1901.959c-30.553,0.455-55.37,25.998-55.37,57.052l0,0c0,31.052,24.817,55.752,55.37,55.169l1093.143-20.875
					c28.046-0.535,50.736-25.018,50.736-54.682l0,0C2116.219,1908.958,2093.529,1885.247,2065.483,1885.666z"/>
				<path style="fill:#D8DEE8;" d="M2065.483,2097.582l-895.49,20.735c-30.102,0.697-54.555,26.25-54.555,57.074l0,0
					c0,30.823,24.453,55.142,54.555,54.319l895.49-24.488c28.046-0.767,50.736-25.436,50.736-55.101l0,0
					C2116.219,2120.455,2093.529,2096.932,2065.483,2097.582z"/>
				<g>
					<path style="fill:#B19AF3;" d="M972.845,2235.1l-1.012,0.028c-30.273,0.828-54.865-22.57-54.865-52.26v-4.931
						c0-29.691,24.592-54.33,54.865-55.031l1.012-0.023c30.203-0.7,54.636,22.705,54.636,52.274v4.91
						C1027.482,2209.636,1003.048,2234.274,972.845,2235.1z"/>
					<path style="fill:#D8DEE8;" d="M972.339,2245.635c-36.23,1.005-65.778-28.139-65.778-64.97
						c0-36.831,29.548-67.467,65.778-68.292c36.132-0.823,65.456,28.328,65.456,64.978
						C1037.796,2214.001,1008.471,2244.633,972.339,2245.635z M972.339,2133.414c-24.779,0.583-44.971,21.545-44.971,46.725
						c0,25.179,20.192,45.122,44.971,44.454c24.733-0.666,44.821-21.626,44.821-46.721
						C1017.16,2152.777,997.073,2132.832,972.339,2133.414z"/>
				</g>
				<path style="fill:#D8DEE8;" d="M2065.483,2289.315l-895.49,27.419c-30.102,0.922-54.555,26.657-54.555,57.481l0,0
					c0,30.823,24.453,54.959,54.555,53.912l895.49-31.172c28.046-0.976,50.736-25.815,50.736-55.48l0,0
					C2116.219,2311.81,2093.529,2288.456,2065.483,2289.315z"/>
				<g>
					<path style="fill:#B19AF3;" d="M972.845,2434.99l-1.012,0.035c-30.273,1.054-54.865-22.16-54.865-51.851v-4.931
						c0-29.691,24.592-54.514,54.865-55.441l1.012-0.031c30.203-0.925,54.636,22.297,54.636,51.867v4.91
						C1027.482,2409.117,1003.048,2433.938,972.845,2434.99z"/>
					<path style="fill:#D8DEE8;" d="M972.339,2445.528c-36.23,1.275-65.778-27.648-65.778-64.479
						c0-36.83,29.548-67.688,65.778-68.783c36.132-1.093,65.456,27.839,65.456,64.49S1008.471,2444.256,972.339,2445.528z
						 M972.339,2333.307c-24.779,0.768-44.971,21.881-44.971,47.061s20.192,44.971,44.971,44.118
						c24.733-0.851,44.821-21.96,44.821-47.056S997.073,2332.54,972.339,2333.307z"/>
				</g>
				<path style="fill:#D8DEE8;" d="M2065.483,2481.049l-895.49,34.103c-30.102,1.146-54.555,27.064-54.555,57.888l0,0
					c0,30.823,24.453,54.777,54.555,53.505l895.49-37.856c28.046-1.186,50.736-26.194,50.736-55.859l0,0
					C2116.219,2503.165,2093.529,2479.981,2065.483,2481.049z"/>
				<path style="fill:#D8DEE8;" d="M972.339,2645.421c-36.23,1.545-65.778-27.158-65.778-63.988
					c0-36.83,29.548-67.908,65.778-69.274c36.132-1.362,65.456,27.351,65.456,64.001
					C1037.796,2612.81,1008.471,2643.879,972.339,2645.421z M972.339,2533.2c-24.779,0.953-44.971,22.217-44.971,47.396
					c0,25.179,20.192,44.821,44.971,43.783c24.733-1.036,44.821-22.295,44.821-47.39
					C1017.16,2551.894,997.073,2532.249,972.339,2533.2z"/>
				<path style="fill:#D8DEE8;" d="M2065.483,2672.782l-895.49,40.787c-30.102,1.372-54.555,27.473-54.555,58.296l0,0
					c0,30.823,24.453,54.594,54.555,53.097l895.49-44.54c28.046-1.395,50.736-26.572,50.736-56.237l0,0
					C2116.219,2694.521,2093.529,2671.505,2065.483,2672.782z"/>
				<g>
					<path style="fill:#B19AF3;" d="M972.845,2834.768l-1.012,0.051c-30.273,1.506-54.865-21.341-54.865-51.032v-4.931
						c0-29.691,24.592-54.881,54.865-56.259l1.012-0.046c30.203-1.376,54.636,21.482,54.636,51.051v4.911
						C1027.482,2808.08,1003.048,2833.265,972.845,2834.768z"/>
					<path style="fill:#D8DEE8;" d="M972.339,2845.314c-36.23,1.816-65.778-26.667-65.778-63.497
						c0-36.831,29.548-68.129,65.778-69.765c36.132-1.631,65.456,26.862,65.456,63.513
						C1037.796,2812.215,1008.471,2843.502,972.339,2845.314z M972.339,2733.093c-24.779,1.138-44.971,22.553-44.971,47.732
						c0,25.179,20.192,44.67,44.971,43.447c24.733-1.22,44.821-22.63,44.821-47.725
						C1017.16,2751.452,997.073,2731.957,972.339,2733.093z"/>
				</g>
				<path style="opacity:0.35;fill:#FFFFFF;" d="M1640.849,2456.314c-24.272-303.343,157.71-428.797,88.343-703.491
					c-85.795-339.744-416.286-354.693-529.026-688.557c-41.438-122.714-58.85-305.567,48.879-568.189l-452.393-17.184
					c-13.459-0.511-24.419,10.124-24.419,23.708v2658.892c0,13.584,10.96,23.951,24.419,23.111l1235.875-77.107
					C1740.506,2864.173,1655.147,2635.019,1640.849,2456.314z"/>
			</g>
			<path style="fill:#D8DEE8;" d="M2162.943,871.689l-130.757-100.541l-132.101,94.411V548.302
				c0-24.737-11.486-48.519-31.147-64.462l-1.017-0.825l249.305,9.495c25.27,0.962,45.719,22.274,45.719,47.603V871.689z"/>
			
				<linearGradient id="SVGID_00000163055624392333826410000017384182066209866150_" gradientUnits="userSpaceOnUse" x1="2213.2549" y1="357.7843" x2="1825.6864" y2="1044.6932">
				<stop  offset="0" style="stop-color:#FF9085"/>
				<stop  offset="1" style="stop-color:#FB6FBB"/>
			</linearGradient>
			<path style="fill:url(#SVGID_00000163055624392333826410000017384182066209866150_);" d="M2186.872,871.689l-130.757-106.421
				L1924.013,865.2v-335.81c0-26.183-11.486-51.356-31.147-68.232l-1.017-0.873l249.304,10.05
				c25.27,1.019,45.719,23.577,45.719,50.387V871.689z"/>
		</g>
		<g>
			<g>
				
					<linearGradient id="SVGID_00000139293627406689657630000015546803518142117267_" gradientUnits="userSpaceOnUse" x1="1542.0404" y1="1357.3373" x2="2481.2761" y2="1357.3373">
					<stop  offset="0" style="stop-color:#444B8C"/>
					<stop  offset="0.9964" style="stop-color:#26264F"/>
				</linearGradient>
				<path style="fill:url(#SVGID_00000139293627406689657630000015546803518142117267_);" d="M2020.579,1836.759
					c-261.595,8.333-478.538-204.041-478.538-473.576c0-269.536,216.943-487.312,478.538-485.493
					c256.172,1.781,460.698,214.312,460.698,473.799S2276.751,1828.599,2020.579,1836.759z"/>
				<path style="fill:#D8DEE8;" d="M2053.545,1836.759c-261.595,8.333-478.538-204.041-478.538-473.576
					c0-269.536,216.943-487.312,478.538-485.493c256.172,1.781,460.698,214.312,460.698,473.799
					S2309.717,1828.599,2053.545,1836.759z"/>
				<path style="fill:#FFFFFF;" d="M2483.023,1351.877c0,242.29-190.424,444.516-429.477,451.811
					c-243.77,7.438-444.942-189.91-444.942-440.924s201.172-453.372,444.942-452.003
					C2292.599,912.103,2483.023,1109.587,2483.023,1351.877z"/>
				<g>
					<defs>
						<path id="SVGID_00000032631058635803610330000017578651866922464923_" d="M2451.722,1352.267
							c0,224.632-176.673,411.887-398.177,418.35c-225.548,6.581-411.434-176.159-411.434-408.269
							c0-232.111,185.887-419.479,411.434-418.515C2275.05,944.78,2451.722,1127.635,2451.722,1352.267z"/>
					</defs>
					<clipPath id="SVGID_00000016790277809443056400000012646405374762398384_">
						<use xlink:href="#SVGID_00000032631058635803610330000017578651866922464923_"  style="overflow:visible;"/>
					</clipPath>
					<g style="clip-path:url(#SVGID_00000016790277809443056400000012646405374762398384_);">
						
							<linearGradient id="SVGID_00000170984689186586940560000000775379095165069735_" gradientUnits="userSpaceOnUse" x1="1608.6039" y1="1714.7029" x2="2483.0229" y2="1714.7029">
							<stop  offset="0" style="stop-color:#AB316D"/>
							<stop  offset="1" style="stop-color:#792D3D"/>
						</linearGradient>
						<path style="fill:url(#SVGID_00000170984689186586940560000000775379095165069735_);" d="M1608.604,1670.605
							c0,0,390.893-241.655,874.419-21.586c0,0-61.607,200.253-429.477,222.259
							C1674.388,1893.959,1608.604,1670.605,1608.604,1670.605z"/>
						
							<linearGradient id="SVGID_00000075864915810588715310000002122532984987573669_" gradientUnits="userSpaceOnUse" x1="2040.1073" y1="1394.4722" x2="2041.7745" y2="1717.969">
							<stop  offset="0.0036" style="stop-color:#F36F56"/>
							<stop  offset="1" style="stop-color:#FFC444"/>
						</linearGradient>
						<path style="fill:url(#SVGID_00000075864915810588715310000002122532984987573669_);" d="M1984.255,1358.087l-14.653,111.278
							c-4.254,70.74-72.918,98.723-72.918,98.723c80.615,95.628,234.718,88.359,288.609-5.153
							c-37.241-13.345-78.992-70.902-80.615-111.68l-3.767-94.62L1984.255,1358.087z"/>
						
							<linearGradient id="SVGID_00000018237919246028405630000015851822222774531997_" gradientUnits="userSpaceOnUse" x1="2087.7561" y1="948.1833" x2="2006.0958" y2="1452.4917">
							<stop  offset="0.0036" style="stop-color:#F36F56"/>
							<stop  offset="1" style="stop-color:#FFC444"/>
						</linearGradient>
						<path style="fill:url(#SVGID_00000018237919246028405630000015851822222774531997_);" d="M2162.037,1257.954
							c0,93.651-55.442,195.172-124.178,196.297c-69.121,1.131-125.438-99.582-125.438-194.182
							c0-94.602,56.317-146.49,125.438-146.669C2106.596,1113.222,2162.037,1164.302,2162.037,1257.954z"/>
						
							<linearGradient id="SVGID_00000009585826639241161440000004186528217622207657_" gradientUnits="userSpaceOnUse" x1="2044.8503" y1="1052.6984" x2="2004.8792" y2="1299.5479">
							<stop  offset="0" style="stop-color:#444B8C"/>
							<stop  offset="0.9964" style="stop-color:#26264F"/>
						</linearGradient>
						<path style="fill:url(#SVGID_00000009585826639241161440000004186528217622207657_);" d="M1908.7,1283.974
							c6.914-1.173,13.823-2.347,20.729-3.519c-3.173-7.716-16.265-41.894,0-72.014c15.607-28.902,52.352-43.134,80.403-41.375
							c31.86,1.998,50.979,16.844,66.965,5.189c8.984-6.55,11.892-18.378,12.919-27.583c0.709,5.883,2.316,14.583,6.454,24.186
							c11.888,27.581,31.996,33.219,42.944,51.425c7.37,12.256,12.165,32.824,0,69.209c6.072-0.425,12.141-0.851,18.206-1.275
							c6.404-20.425,14.083-49.378,18.859-84.766c7.091-52.544,11.97-88.71-8.162-106.263c-4.012-3.497-21.756-17.365-64.233-4.207
							c-9.953-10.523-30.926-29.787-63.205-39.487c-11.167-3.356-66.559-20.002-115.683,16.096
							c-33.413,24.553-59.606,70.333-51.187,108.117c4.453,19.98,16.629,28.905,27.344,67.519
							C1905.579,1261.528,1907.66,1275.257,1908.7,1283.974z"/>
						
							<linearGradient id="SVGID_00000039128976436770222320000009216931452853768081_" gradientUnits="userSpaceOnUse" x1="2215.5491" y1="969.1788" x2="2134.1492" y2="1471.8792">
							<stop  offset="0.0036" style="stop-color:#F36F56"/>
							<stop  offset="1" style="stop-color:#FFC444"/>
						</linearGradient>
						<path style="fill:url(#SVGID_00000039128976436770222320000009216931452853768081_);" d="M2144.782,1292.678
							c0,0,7.972-41.1,32.178-37.235c24.159,3.857-10.463,71.392-32.178,79.723V1292.678z"/>
						
							<linearGradient id="SVGID_00000011008955895610355400000007961369780078633114_" gradientUnits="userSpaceOnUse" x1="1967.9235" y1="928.8295" x2="1886.1021" y2="1434.1331">
							<stop  offset="0.0036" style="stop-color:#F36F56"/>
							<stop  offset="1" style="stop-color:#FFC444"/>
						</linearGradient>
						<path style="fill:url(#SVGID_00000011008955895610355400000007961369780078633114_);" d="M1927.97,1294.819
							c0,0-8.118-41.329-32.834-37.016c-24.765,4.322,10.695,71.97,32.834,79.878V1294.819z"/>
					</g>
				</g>
			</g>
			<g>
				
					<linearGradient id="SVGID_00000111170967119172628860000017780576735769982602_" gradientUnits="userSpaceOnUse" x1="2886.1021" y1="2473.2097" x2="2663.8835" y2="2092.2632">
					<stop  offset="0.0036" style="stop-color:#F36F56"/>
					<stop  offset="1" style="stop-color:#FFC444"/>
				</linearGradient>
				<path style="fill:url(#SVGID_00000111170967119172628860000017780576735769982602_);" d="M2482.305,1631.424
					c-7.792,10.908-15.583,21.816-23.374,32.723c34.244,25.444,75.465,64.719,74.796,112.194
					c-1.011,71.736-96.718,94.946-102.844,168.291c-6.207,74.307,82.42,165.453,140.242,154.267
					c73.698-14.257,139.229-202.845,70.122-336.583C2597.274,1677.22,2513.351,1642.514,2482.305,1631.424z"/>
				
					<linearGradient id="SVGID_00000058577585095516401620000008131561148537474433_" gradientUnits="userSpaceOnUse" x1="2573.7332" y1="1593.1183" x2="2550.6917" y2="1909.1194">
					<stop  offset="0.0036" style="stop-color:#F36F56"/>
					<stop  offset="1" style="stop-color:#FFC444"/>
				</linearGradient>
				<path style="opacity:0.3;fill:url(#SVGID_00000058577585095516401620000008131561148537474433_);" d="M2482.305,1631.424
					c0.714,10.074,3.384,25.143,14.024,37.398c15.035,17.318,33.164,14.248,51.422,23.374c37.16,18.572,55.931,78.2,46.748,126.219
					c-9.38,49.045-46.183,76.88-56.097,84.146c-51.094,37.447-95.235,18.761-107.519,42.073
					c-21.221,40.27,72.761,167.321,140.242,154.267c73.698-14.257,139.229-202.845,70.122-336.583
					C2597.274,1677.22,2513.351,1642.514,2482.305,1631.424z"/>
				
					<linearGradient id="SVGID_00000057831750664141561610000013589676696950929063_" gradientUnits="userSpaceOnUse" x1="2538.0044" y1="1795.2238" x2="2452.3005" y2="1622.2577">
					<stop  offset="0.0036" style="stop-color:#F36F56"/>
					<stop  offset="1" style="stop-color:#FFC444"/>
				</linearGradient>
				<path style="fill:url(#SVGID_00000057831750664141561610000013589676696950929063_);" d="M2476.619,1660.08
					c0,0-25.165-8.666-32.481-17.175c-7.315-8.509-1.129-38.178-0.837-61.816c0.292-23.639,11.163,10.618,13.677,18.363
					c2.514,7.746,0.758,25.71,20.052,39.71L2476.619,1660.08z"/>
				
					<linearGradient id="SVGID_00000096057431015987444330000011302014337720627349_" gradientUnits="userSpaceOnUse" x1="1281.1035" y1="1814.1455" x2="1270.1449" y2="1682.6407" gradientTransform="matrix(0.9986 0.0537 -0.0537 0.9986 1267.6666 -55.8024)">
					<stop  offset="0" style="stop-color:#AB316D"/>
					<stop  offset="1" style="stop-color:#792D3D"/>
				</linearGradient>
				<path style="fill:url(#SVGID_00000096057431015987444330000011302014337720627349_);" d="M2418.088,1804.731
					c-9.106-17.934-12.862-17.83-15.098-27.297c-5.097-21.573,8.062-48.973,19.221-49.353c7.194-0.245,7.789,10.938,23.018,28.369
					c18.656,21.353,29.978,18.55,40.957,37.086c2.569,4.336,14.126,23.852,7.018,38.417c-9.071,18.59-44.835,21.534-59.785,7.195
					C2426.328,1832.348,2429.306,1826.827,2418.088,1804.731z"/>
				
					<linearGradient id="SVGID_00000096056603125968433600000002138285496696932998_" gradientUnits="userSpaceOnUse" x1="1242.0826" y1="1620.2686" x2="1252.5573" y2="2007.8179" gradientTransform="matrix(0.9986 0.0537 -0.0537 0.9986 1267.6666 -55.8024)">
					<stop  offset="0.0036" style="stop-color:#F36F56"/>
					<stop  offset="1" style="stop-color:#FFC444"/>
				</linearGradient>
				<path style="fill:url(#SVGID_00000096056603125968433600000002138285496696932998_);" d="M2444.899,1824.085
					c0,0-6.387,34.088-1.841,61.803c4.11,25.049,50.512,51.069,59.406,58.532c8.893,7.461-23.59,15.558-53.388,11.658
					c-29.795-3.898-111.381-30.005-123.779-44.556c-12.399-14.55,14.435-7.38,37.003-10.135
					c22.568-2.755,44.111-40.576,44.769-59.879C2407.727,1822.201,2444.899,1824.085,2444.899,1824.085z"/>
				<g>
					
						<linearGradient id="SVGID_00000016754493548486771770000004122846552652526476_" gradientUnits="userSpaceOnUse" x1="1245.4502" y1="1740.7834" x2="1348.806" y2="1849.726" gradientTransform="matrix(-0.966 -0.2584 -0.2584 0.966 4174.9497 402.9503)">
						<stop  offset="0.0036" style="stop-color:#F36F56"/>
						<stop  offset="1" style="stop-color:#FFC444"/>
					</linearGradient>
					<path style="fill:url(#SVGID_00000016754493548486771770000004122846552652526476_);" d="M2435.181,1849.525
						c0,0-22.811,10.016-43.015-6.14c-18.09-14.467,8.808-58.906,27.21-59.473c6.14-0.189,15.099,4.209,20.39,10.644
						c3.125,3.801,3.311,6.334,8.538,12.445c4.819,5.635,6.94,6.144,7.671,8.88c0.917,3.422-0.657,9.144-13.044,18.979
						c6.172-1.138,11.494,0.489,13.555,4.086c0.328,0.574,1.011,2.369,0.807,4.22
						C2456.553,1849.873,2447.793,1852.978,2435.181,1849.525z"/>
				</g>
				
					<linearGradient id="SVGID_00000067215450153572947570000001320444307061729470_" gradientUnits="userSpaceOnUse" x1="1801.488" y1="1840.9462" x2="1737.5996" y2="1738.1014">
					<stop  offset="0.0036" style="stop-color:#F36F56"/>
					<stop  offset="1" style="stop-color:#FFC444"/>
				</linearGradient>
				<path style="fill:url(#SVGID_00000067215450153572947570000001320444307061729470_);" d="M1770.524,1752.224
					c0,0-13.678,2.732-18.301-23.598c-3.623-20.64-8.328-26.364-11.73-21.295c-3.402,5.069-0.117,16.581-0.117,16.581
					s-21.816-8.476-35.294-24.852c-13.477-16.377-12.409,1-10.615,10.913c1.794,9.914,23.345,35.122,31.671,38.32
					c8.326,3.197,26.084,23.894,26.084,23.894L1770.524,1752.224z"/>
				
					<linearGradient id="SVGID_00000008132235524774377200000010181932873244025780_" gradientUnits="userSpaceOnUse" x1="1817.6016" y1="3315.5115" x2="1748.1493" y2="3086.5061" gradientTransform="matrix(-0.9999 0.0138 0.0138 0.9999 3921.2695 -14.86)">
					<stop  offset="0" style="stop-color:#444B8C"/>
					<stop  offset="0.9964" style="stop-color:#26264F"/>
				</linearGradient>
				<path style="fill:url(#SVGID_00000008132235524774377200000010181932873244025780_);" d="M2215.747,3213.492
					c7.108,14.498,5.114,20.729,3.344,23.469c-5.188,8.042-17.676,0.448-50.279,4.309c-3.824,0.455-11.121,1.441-20.228-0.704
					c-7.802-1.839-16.999-5.992-16.607-8.081c0.143-0.761,1.53-1.066,2.055-1.177c9.047-1.929,65.684-19.311,65.684-19.311
					L2215.747,3213.492z"/>
				
					<linearGradient id="SVGID_00000106140198672674136240000008645936947769776007_" gradientUnits="userSpaceOnUse" x1="316.4979" y1="2801.2034" x2="316.4979" y2="2433.3186" gradientTransform="matrix(-0.9819 -0.1895 -0.1895 0.9819 3038.6392 587.9978)">
					<stop  offset="0" style="stop-color:#FFC444"/>
					<stop  offset="0.9964" style="stop-color:#F36F56"/>
				</linearGradient>
				<path style="fill:url(#SVGID_00000106140198672674136240000008645936947769776007_);" d="M2228.019,3184.49l-9.598,25.56
					c-1.472,3.921-5.081,6.651-9.258,6.964c-4.237,0.317-8.852-0.899-9.461-7.445c-0.833-8.948,3.941-31.611,3.941-31.611
					L2228.019,3184.49z"/>
				
					<linearGradient id="SVGID_00000173152834028516948610000009425018803090088619_" gradientUnits="userSpaceOnUse" x1="1339.864" y1="3222.6577" x2="1339.864" y2="2854.7437" gradientTransform="matrix(-0.9999 0.0138 0.0138 0.9999 3921.2695 -14.86)">
					<stop  offset="0" style="stop-color:#FFC444"/>
					<stop  offset="0.9964" style="stop-color:#F36F56"/>
				</linearGradient>
				<polygon style="fill:url(#SVGID_00000173152834028516948610000009425018803090088619_);" points="2608.323,3141.772 
					2621.989,3179.089 2641.849,3175.926 2637.245,3141.372 				"/>
				
					<linearGradient id="SVGID_00000123412614852072490760000017494923317066402218_" gradientUnits="userSpaceOnUse" x1="1365.4438" y1="3236.5652" x2="1295.9928" y2="3007.5637" gradientTransform="matrix(-0.9999 0.0138 0.0138 0.9999 3921.2695 -14.86)">
					<stop  offset="0" style="stop-color:#444B8C"/>
					<stop  offset="0.9964" style="stop-color:#26264F"/>
				</linearGradient>
				<path style="fill:url(#SVGID_00000123412614852072490760000017494923317066402218_);" d="M2628.174,3199.642
					c9.614-11.407,18.196-10.373,19.928-18.211c1.361-6.16-2.412-13.714-8.102-16.583c-7.999-4.031-17.687,2.266-19.876,3.687
					c-14.869,9.665-10.819,24.781-24.838,31.336c-2.822,1.32-7.292,2.718-12.006,7.135c-2,1.876-6.959,6.521-5.797,9.72
					c1.343,3.7,10.182,3.572,18.586,3.45c10.085-0.145,15.126-0.214,19.976-3.243
					C2622.767,3212.739,2620.754,3208.445,2628.174,3199.642z"/>
				
					<linearGradient id="SVGID_00000072260392810028809560000004498306907861398926_" gradientUnits="userSpaceOnUse" x1="2821.5933" y1="2684.3264" x2="2787.8062" y2="3444.5393" gradientTransform="matrix(-0.9766 0.215 0.215 0.9766 4676.793 -768.2375)">
					<stop  offset="0" style="stop-color:#444B8C"/>
					<stop  offset="0.9964" style="stop-color:#26264F"/>
				</linearGradient>
				<path style="fill:url(#SVGID_00000072260392810028809560000004498306907861398926_);" d="M2577.059,2362.693
					c11.592,74.579,13.986,139.787,12.53,193.645c-1.566,57.938-6.671,68.836-3.276,108.079
					c7.391,85.392,36.641,92.444,59.01,186.392c24.7,103.737,12.12,192.096,6.997,225.86c-4.479,29.517-10.386,53.775-15.065,70.729
					c-8.068,10.134-23.341,9.613-39.399,9.304c-23.135-93.958-46.645-182.062-69.779-276.02
					c-44.613-139.548-89.224-279.091-133.836-418.636C2455.181,2428.926,2516.12,2395.813,2577.059,2362.693z"/>
				
					<linearGradient id="SVGID_00000032616647749867890920000005046321743333805500_" gradientUnits="userSpaceOnUse" x1="2821.5933" y1="2684.3264" x2="2787.8062" y2="3444.5388" gradientTransform="matrix(-0.9766 0.215 0.215 0.9766 4676.793 -768.2375)">
					<stop  offset="0" style="stop-color:#444B8C"/>
					<stop  offset="0.9964" style="stop-color:#26264F"/>
				</linearGradient>
				<path style="opacity:0.3;fill:url(#SVGID_00000032616647749867890920000005046321743333805500_);" d="M2597.856,3156.702
					c-23.135-93.958-46.645-182.062-69.779-276.02c-44.613-139.548-89.224-279.091-133.836-418.636
					c60.941-33.12,121.88-66.233,182.819-99.352c0.767,4.939,1.39,9.723,2.08,14.583c-76.469,95.679-82.792,161.52-74.073,204.04
					c10.575,51.57,43.59,72.039,51.829,148.112c5.891,54.392-8.508,66.807,0.383,115.234c11.451,62.358,44.647,92.51,64.293,126.154
					c18.987,32.517,32.521,81.024,21.055,155.652c-1.866,7.832-3.698,14.869-5.372,20.93
					C2629.187,3157.53,2613.915,3157.012,2597.856,3156.702z"/>
				
					<linearGradient id="SVGID_00000067947224421839544390000010566629091522581163_" gradientUnits="userSpaceOnUse" x1="2084.7104" y1="2783.2227" x2="1335.157" y2="2749.1514" gradientTransform="matrix(-0.9999 0.0138 0.0138 0.9999 3921.2695 -14.86)">
					<stop  offset="0" style="stop-color:#444B8C"/>
					<stop  offset="0.9964" style="stop-color:#26264F"/>
				</linearGradient>
				<path style="fill:url(#SVGID_00000067947224421839544390000010566629091522581163_);" d="M2470.899,2453.38
					c-1.464,35.776-7.417,89.907-30.667,150.395c-31.167,81.089-65.329,100.521-79.47,168.292
					c-14.768,70.77,12.285,98.469,13.66,163.633c1.288,61.03-20.088,148.278-125.854,257.094
					c-17.141-1.558-34.282-3.117-51.422-4.675c13.748-52.74,32.012-134.992,41.2-237.919c4.603-51.559,5.225-89.23,5.547-103.338
					c1.959-85.552,14.129-231.022,59.491-493.479C2359.221,2386.713,2415.06,2420.044,2470.899,2453.38z"/>
				
					<linearGradient id="SVGID_00000001642039502219626480000017162004406570065573_" gradientUnits="userSpaceOnUse" x1="2604.4875" y1="2637.4856" x2="2382.269" y2="2256.5388">
					<stop  offset="0.0036" style="stop-color:#F36F56"/>
					<stop  offset="1" style="stop-color:#FFC444"/>
				</linearGradient>
				<path style="fill:url(#SVGID_00000001642039502219626480000017162004406570065573_);" d="M1739.019,1762.318
					c10.907-6.233,21.815-12.467,32.724-18.699c120.76,118.704,225.994,151.436,300.017,159.272
					c111.803,11.834,189.882-33.631,339.007-2.667c46.974,9.753,128.854,27.925,174.255,94.845
					c11.934,17.59,16.18,30.909,35.997,157.096c25.332,161.303,26.233,189.453,22.662,224.184
					c-6.536,63.56-10.498,102.079-39.805,136.171c-77.82,90.53-243.225,43.852-263.963,37.709
					c-38.31-11.347-97.851-28.986-121.507-79.608c-17.539-37.531,1.291-59.632,7.159-132.698
					c2.957-36.807,12.2-151.89-42.444-220.325c-39.269-49.178-93.869-52.147-147.306-68.859
					C1951.244,2022.292,1842.265,1952.877,1739.019,1762.318z"/>
				<g style="opacity:0.3;">
					
						<linearGradient id="SVGID_00000039838169726759703330000002755417484758246066_" gradientUnits="userSpaceOnUse" x1="2070.3484" y1="1949.2214" x2="2500.4258" y2="2603.688">
						<stop  offset="0.0036" style="stop-color:#F36F56"/>
						<stop  offset="1" style="stop-color:#FFC444"/>
					</linearGradient>
					<path style="fill:url(#SVGID_00000039838169726759703330000002755417484758246066_);" d="M2533.929,2469.402
						c-45.462-41.015-72.312-28.427-100.017-60.995c-64.047-75.289,31.256-199.196-24.946-258.617
						c-44.998-47.578-130.952,5.568-180.073-50.823c-32.579-37.403-3.236-70.505-32.165-109.199
						c-45.783-61.238-148.466-17.37-282.797-55.787c-31.625-9.045-59.637-21.151-84.093-34.248
						c73.767,89.835,146.009,130.254,205.976,149.008c53.438,16.712,108.038,19.681,147.306,68.859
						c54.645,68.435,45.401,183.517,42.444,220.325c-5.868,73.066-24.698,95.166-7.159,132.698
						c23.656,50.622,83.197,68.26,121.507,79.608c18.958,5.615,158.773,45.037,242.095-17.384
						C2570.702,2510.754,2555.288,2488.672,2533.929,2469.402z"/>
				</g>
			</g>
		</g>
		<g>
			
				<linearGradient id="SVGID_00000058576998853472460650000003149642622794247860_" gradientUnits="userSpaceOnUse" x1="686.4227" y1="2951.3196" x2="1064.142" y2="3078.2842">
				<stop  offset="0" style="stop-color:#AB316D"/>
				<stop  offset="1" style="stop-color:#792D3D"/>
			</linearGradient>
			<path style="fill:url(#SVGID_00000058576998853472460650000003149642622794247860_);" d="M896.727,3190.844
				c-1.511,13.082-7.87,23.621-16.245,26.917c-20.919,8.233-47.989,11.343-79.636,11.382c-32.133,0.04-59.566-3.224-80.655-11.58
				c-8.116-3.216-14.347-13.238-16.076-25.841l-56.107-408.925h295.866L896.727,3190.844z"/>
			
				<linearGradient id="SVGID_00000047761734950043326540000015608974652171503758_" gradientUnits="userSpaceOnUse" x1="856.7137" y1="2655.7261" x2="704.8788" y2="2973.1985">
				<stop  offset="0" style="stop-color:#FFC444"/>
				<stop  offset="0.9964" style="stop-color:#F36F56"/>
			</linearGradient>
			
				<ellipse style="fill:url(#SVGID_00000047761734950043326540000015608974652171503758_);" cx="795.941" cy="2782.797" rx="147.933" ry="22.749"/>
			
				<linearGradient id="SVGID_00000133487759829435251420000000812096133913994377_" gradientUnits="userSpaceOnUse" x1="1129.1216" y1="1309.3818" x2="853.0593" y2="2238.7905">
				<stop  offset="0" style="stop-color:#AA80F9"/>
				<stop  offset="0.9964" style="stop-color:#6165D7"/>
			</linearGradient>
			<path style="fill:url(#SVGID_00000133487759829435251420000000812096133913994377_);" d="M808.164,2781.224
				c10.763,0,21.526,0,32.289,0c221.765-157.882,262.252-270.782,252.975-347.378c-8.2-67.709-53.444-91.846-120.787-259.959
				c-40.145-100.217-60.217-150.325-58.654-204.746c3.419-118.941,78.762-134.451,119.627-289.865
				c16.289-61.948,43.276-164.584-4.601-264.56c-51.362-107.255-164.662-181.571-193.088-161.014
				c-18.849,13.631-0.224,69.145,18.249,124.205c48.93,145.841,112.044,179.295,118.467,264.56
				c3.967,52.673-17.531,74.265-65.555,174.839c-97.248,203.662-149.811,313.74-128.829,420.995
				c28.696,146.688,170.319,162.153,179.44,289.865C965.117,2632.046,878.632,2722.791,808.164,2781.224z"/>
			
				<linearGradient id="SVGID_00000142897647266538603780000002814056962224721294_" gradientUnits="userSpaceOnUse" x1="771.1087" y1="1230.8452" x2="637.6803" y2="2831.9998">
				<stop  offset="0.0036" style="stop-color:#E38DDD"/>
				<stop  offset="1" style="stop-color:#9571F6"/>
			</linearGradient>
			<path style="fill:url(#SVGID_00000142897647266538603780000002814056962224721294_);" d="M649.428,1209.97
				c-30.787-4.078-97.861,126.528-96.622,266.86c1.204,136.325,65.767,156.24,85.119,296.767
				c24.577,178.475-72.742,195.878-57.513,370.383c13.931,159.634,98.94,185.99,147.233,404.891
				c21.284,96.477,24.108,179.001,23.005,234.653c10.736,0,21.472,0,32.207,0c65.759-136.493,82.352-249.886,85.119-328.974
				c7.07-202.06-73.626-250.987-46.01-448.601c18.355-131.349,61.608-164.131,43.71-273.762
				c-11.034-67.589-38.929-125.296-85.119-220.85c-44.108-91.248-65.152-110.921-92.021-190.943
				C663.527,1245.912,664.644,1211.987,649.428,1209.97z"/>
			
				<linearGradient id="SVGID_00000039842208425583787310000008301700824922060438_" gradientUnits="userSpaceOnUse" x1="379.6332" y1="2188.6975" x2="781.7801" y2="2188.6975">
				<stop  offset="0" style="stop-color:#AA80F9"/>
				<stop  offset="0.9964" style="stop-color:#6165D7"/>
			</linearGradient>
			<path style="fill:url(#SVGID_00000039842208425583787310000008301700824922060438_);" d="M716.143,2778.923
				c3.994-49.248,1.758-119.192-34.508-186.342c-61.049-113.037-154.184-99.01-230.052-200.145
				c-79.795-106.371-92.644-276.358-41.409-397.99c49.244-116.905,137.639-142.846,138.031-248.456
				c0.317-85.41-58.567-146.924-50.611-151.834c8.187-5.052,74.847,57.421,101.518,149.515c10.426,36.002,14.718,76.45,0,186.361
				c-22.218,165.921-47.235,187.532-46.306,248.456c1.956,128.208,128.198,143.953,193.244,287.565
				c29.505,65.144,53.257,166.075,18.404,317.472C748.35,2781.991,732.247,2780.457,716.143,2778.923z"/>
		</g>
	</g>
</g>
</svg>
